<svg width="32" height="33" viewBox="0 0 32 33" fill="none" xmlns="http://www.w3.org/2000/svg">
<path d="M27.9322 20.9108L20.0678 28.7752C17.8212 31.0218 14.1788 31.0218 11.9322 28.7752L4.0678 20.9108C1.82122 18.6642 1.82122 15.0218 4.0678 12.7752L11.9322 4.91082C14.1788 2.66424 17.8212 2.66423 20.0678 4.91082L27.9322 12.7752C30.1788 15.0218 30.1788 18.6642 27.9322 20.9108Z" fill="#FF49F8"/>
<path d="M18.5958 23.4594L18.0103 24.0449C17.1678 24.8874 15.8019 24.8874 14.9594 24.0449L8.79816 17.8836C7.95569 17.0411 7.95569 15.6752 8.79816 14.8328L9.38367 14.2472C10.2261 13.4048 11.5921 13.4048 12.4345 14.2472L18.5958 20.4085C19.4383 21.251 19.4383 22.6169 18.5958 23.4594Z" fill="white"/>
<path d="M23.4439 18.6107L22.8584 19.1963C22.016 20.0387 20.6501 20.0387 19.8076 19.1963L13.6463 13.035C12.8038 12.1925 12.8038 10.8266 13.6463 9.98412L14.2318 9.39861C15.0743 8.55614 16.4402 8.55614 17.2827 9.39861L23.4439 15.5599C24.2864 16.4024 24.2864 17.7683 23.4439 18.6107Z" fill="white"/>
</svg>
