<svg width="1141" height="30" viewBox="0 0 1141 30" fill="none" xmlns="http://www.w3.org/2000/svg">
<path fill-rule="evenodd" clip-rule="evenodd" d="M76.2471 29.679H0L23.8724 5.8839C31.7431 -1.9613 44.504 -1.9613 52.3747 5.8839L76.2471 29.679Z" fill="#FF49F8"/>
<path fill-rule="evenodd" clip-rule="evenodd" d="M209.247 29.679H133L156.872 5.8839C164.743 -1.9613 177.504 -1.9613 185.375 5.8839L209.247 29.679Z" fill="#FF49F8"/>
<path fill-rule="evenodd" clip-rule="evenodd" d="M342.247 29.679H266L289.872 5.8839C297.743 -1.9613 310.504 -1.9613 318.375 5.8839L342.247 29.679Z" fill="#FF49F8"/>
<path fill-rule="evenodd" clip-rule="evenodd" d="M475.247 29.679H399L422.872 5.8839C430.743 -1.9613 443.504 -1.9613 451.375 5.8839L475.247 29.679Z" fill="#FF49F8"/>
<path fill-rule="evenodd" clip-rule="evenodd" d="M608.247 29.679H532L555.872 5.8839C563.743 -1.9613 576.504 -1.9613 584.375 5.8839L608.247 29.679Z" fill="#FF49F8"/>
<path fill-rule="evenodd" clip-rule="evenodd" d="M741.247 29.679H665L688.872 5.8839C696.743 -1.9613 709.504 -1.9613 717.375 5.8839L741.247 29.679Z" fill="#FF49F8"/>
<path fill-rule="evenodd" clip-rule="evenodd" d="M874.247 29.679H798L821.872 5.8839C829.743 -1.9613 842.504 -1.9613 850.375 5.8839L874.247 29.679Z" fill="#FF49F8"/>
<path fill-rule="evenodd" clip-rule="evenodd" d="M1007.25 29.679H931L954.872 5.8839C962.743 -1.9613 975.504 -1.9613 983.375 5.8839L1007.25 29.679Z" fill="#FF49F8"/>
<path fill-rule="evenodd" clip-rule="evenodd" d="M1140.25 29.679H1064L1087.87 5.8839C1095.74 -1.9613 1108.5 -1.9613 1116.37 5.8839L1140.25 29.679Z" fill="#FF49F8"/>
</svg>
