<svg width="1141" height="30" viewBox="0 0 1141 30" fill="none" xmlns="http://www.w3.org/2000/svg">
<path fill-rule="evenodd" clip-rule="evenodd" d="M76.2471 -2.09808e-05H0L23.8724 23.7951C31.7431 31.6403 44.504 31.6403 52.3747 23.7951L76.2471 -2.09808e-05Z" fill="#D3FF8C"/>
<path fill-rule="evenodd" clip-rule="evenodd" d="M209.247 -2.09808e-05H133L156.872 23.7951C164.743 31.6403 177.504 31.6403 185.375 23.7951L209.247 -2.09808e-05Z" fill="#D3FF8C"/>
<path fill-rule="evenodd" clip-rule="evenodd" d="M342.247 -2.09808e-05H266L289.872 23.7951C297.743 31.6403 310.504 31.6403 318.375 23.7951L342.247 -2.09808e-05Z" fill="#D3FF8C"/>
<path fill-rule="evenodd" clip-rule="evenodd" d="M475.247 -2.09808e-05H399L422.872 23.7951C430.743 31.6403 443.504 31.6403 451.375 23.7951L475.247 -2.09808e-05Z" fill="#D3FF8C"/>
<path fill-rule="evenodd" clip-rule="evenodd" d="M608.247 -2.09808e-05H532L555.872 23.7951C563.743 31.6403 576.504 31.6403 584.375 23.7951L608.247 -2.09808e-05Z" fill="#D3FF8C"/>
<path fill-rule="evenodd" clip-rule="evenodd" d="M741.247 -2.09808e-05H665L688.872 23.7951C696.743 31.6403 709.504 31.6403 717.375 23.7951L741.247 -2.09808e-05Z" fill="#D3FF8C"/>
<path fill-rule="evenodd" clip-rule="evenodd" d="M874.247 -2.09808e-05H798L821.872 23.7951C829.743 31.6403 842.504 31.6403 850.375 23.7951L874.247 -2.09808e-05Z" fill="#D3FF8C"/>
<path fill-rule="evenodd" clip-rule="evenodd" d="M1007.25 -2.09808e-05H931L954.872 23.7951C962.743 31.6403 975.504 31.6403 983.375 23.7951L1007.25 -2.09808e-05Z" fill="#D3FF8C"/>
<path fill-rule="evenodd" clip-rule="evenodd" d="M1140.25 -2.09808e-05H1064L1087.87 23.7951C1095.74 31.6403 1108.5 31.6403 1116.37 23.7951L1140.25 -2.09808e-05Z" fill="#D3FF8C"/>
</svg>
