<svg width="1275" height="1133" viewBox="0 0 1275 1133" fill="none" xmlns="http://www.w3.org/2000/svg">
<path d="M628.088 525.727L712.148 477.195L712.148 325.733L670.118 425.73L628.088 374.265L628.088 525.727Z" fill="#FF49F8"/>
<path d="M937.03 347.897L852.97 396.43L852.97 547.891L895 447.894L937.03 499.359L937.03 347.897Z" fill="#2630F7"/>
<path d="M515.646 591.373L599.707 542.841L599.707 694.302L557.677 642.838L515.646 742.835L515.646 591.373Z" fill="black"/>
<path d="M37.5014 865.946L-46.559 914.478L-46.559 763.017L-4.52881 814.481L37.5013 714.484L37.5014 865.946Z" fill="#FF49F8"/>
<path d="M149.943 802.323L65.8822 850.855L65.8822 1002.32L107.912 902.32L149.942 953.784L149.943 802.323Z" fill="black"/>
<path d="M374.825 672.487L290.764 721.019L290.764 872.481L332.794 772.484L374.825 823.948L374.825 672.487Z" fill="#FF49F8"/>
<path d="M262.384 737.058L178.323 785.59L178.323 634.129L220.353 685.593L262.384 585.597L262.384 737.058Z" fill="#2630F7"/>
<path d="M1049.47 282.98L965.411 331.512L1007.44 458.707L1049.47 282.98Z" fill="#FF49F8"/>
<path d="M1161.86 217.665L1077.8 266.198L1119.83 393.393L1161.86 217.665Z" fill="#2630F7"/>
<path d="M403.205 656.293L487.266 607.761L445.236 783.488L403.205 656.293Z" fill="#2630F7"/>
<path d="M824.589 412.471L740.529 461.003L782.559 285.276L824.589 412.471Z" fill="black"/>
<path d="M1274.06 152.461L1190 200.994L1190 49.5323L1232.03 100.997L1274.06 1.00006L1274.06 152.461Z" fill="black"/>
</svg>
