<svg width="1920" height="151" viewBox="0 0 1920 151" fill="none" xmlns="http://www.w3.org/2000/svg">
<path d="M887.625 5.90086e-05H993.316L1080.32 150.688L983.971 75.3443L974.625 150.688L887.625 5.90086e-05Z" fill="#2630F7"/>
<path d="M604.875 5.90086e-05H710.566L797.566 150.688L701.221 75.3443L691.875 150.688L604.875 5.90086e-05Z" fill="#2630F7"/>
<path d="M746.25 5.90086e-05H851.941L938.941 150.688L842.596 75.3443L833.25 150.688L746.25 5.90086e-05Z" fill="#FF49F8"/>
<path d="M180.75 5.90086e-05H286.441L373.441 150.688L277.096 75.3443L267.75 150.688L180.75 5.90086e-05Z" fill="#2630F7"/>
<path d="M-102 5.90086e-05H3.69116L90.6912 150.688L-5.6544 75.3443L-15 150.688L-102 5.90086e-05Z" fill="black"/>
<path d="M39.375 5.90086e-05H145.066L232.066 150.688L135.721 75.3443L126.375 150.688L39.375 5.90086e-05Z" fill="#FF49F8"/>
<path d="M1877.25 5.90086e-05H1982.94L2069.94 150.688L1973.6 75.3443L1964.25 150.688L1877.25 5.90086e-05Z" fill="black"/>
<path d="M1735.87 5.90086e-05H1841.57L1928.57 150.688L1832.22 75.3443L1822.88 150.688L1735.87 5.90086e-05Z" fill="#2630F7"/>
<path d="M1594.5 5.90086e-05H1700.19L1787.19 150.688L1690.85 75.3443L1681.5 150.688L1594.5 5.90086e-05Z" fill="#FF49F8"/>
<path d="M1311.75 5.90086e-05H1417.44L1504.44 150.688L1408.1 75.3443L1398.75 150.688L1311.75 5.90086e-05Z" fill="black"/>
<path d="M1453.12 5.90086e-05H1558.82L1645.82 150.688L1549.47 75.3443L1540.13 150.688L1453.12 5.90086e-05Z" fill="#2630F7"/>
<path d="M463.5 5.90086e-05H569.191L603.346 150.688L463.5 5.90086e-05Z" fill="black"/>
<path d="M322.125 5.90086e-05H427.816L461.971 150.688L322.125 5.90086e-05Z" fill="#FF49F8"/>
<path d="M1170.37 5.90086e-05H1276.07L1310.22 150.688L1170.37 5.90086e-05Z" fill="#FF49F8"/>
<path d="M1029 5.90086e-05H1134.69L1168.85 150.688L1029 5.90086e-05Z" fill="black"/>
</svg>
