<svg width="1920" height="151" viewBox="0 0 1920 151" fill="none" xmlns="http://www.w3.org/2000/svg">
<path d="M1080.32 -2.02656e-06H974.625L887.625 150.688L983.971 75.3442L993.316 150.688L1080.32 -2.02656e-06Z" fill="#2630F7"/>
<path d="M1363.07 -2.02656e-06H1257.38L1170.38 150.688L1266.72 75.3442L1276.07 150.688L1363.07 -2.02656e-06Z" fill="#2630F7"/>
<path d="M1221.69 -2.02656e-06H1116L1029 150.688L1125.35 75.3442L1134.69 150.688L1221.69 -2.02656e-06Z" fill="#FF49F8"/>
<path d="M1787.19 -2.02656e-06H1681.5L1594.5 150.688L1690.85 75.3442L1700.19 150.688L1787.19 -2.02656e-06Z" fill="#2630F7"/>
<path d="M2069.94 -2.02656e-06H1964.25L1877.25 150.688L1973.6 75.3442L1982.94 150.688L2069.94 -2.02656e-06Z" fill="black"/>
<path d="M1928.57 -2.02656e-06H1822.88L1735.88 150.688L1832.22 75.3442L1841.57 150.688L1928.57 -2.02656e-06Z" fill="#FF49F8"/>
<path d="M90.6912 -2.02656e-06H-15L-102 150.688L-5.65444 75.3442L3.69112 150.688L90.6912 -2.02656e-06Z" fill="black"/>
<path d="M232.066 -2.02656e-06H126.375L39.375 150.688L135.721 75.3442L145.066 150.688L232.066 -2.02656e-06Z" fill="#2630F7"/>
<path d="M373.441 -2.02656e-06H267.75L180.75 150.688L277.096 75.3442L286.441 150.688L373.441 -2.02656e-06Z" fill="#FF49F8"/>
<path d="M656.191 -2.02656e-06H550.5L463.5 150.688L559.846 75.3442L569.191 150.688L656.191 -2.02656e-06Z" fill="black"/>
<path d="M514.816 -2.02656e-06H409.125L322.125 150.688L418.471 75.3442L427.816 150.688L514.816 -2.02656e-06Z" fill="#2630F7"/>
<path d="M1504.44 -2.02656e-06H1398.75L1364.6 150.688L1504.44 -2.02656e-06Z" fill="black"/>
<path d="M1645.82 -2.02656e-06H1540.12L1505.97 150.688L1645.82 -2.02656e-06Z" fill="#FF49F8"/>
<path d="M797.566 -2.02656e-06H691.875L657.721 150.688L797.566 -2.02656e-06Z" fill="#FF49F8"/>
<path d="M938.941 -2.02656e-06H833.25L799.096 150.688L938.941 -2.02656e-06Z" fill="black"/>
</svg>
