<svg width="1275" height="989" viewBox="0 0 1275 989" fill="none" xmlns="http://www.w3.org/2000/svg">
<path d="M712.148 325.874L628.088 374.407L628.088 534.205L670.118 430.039L712.148 485.672L712.148 325.874Z" fill="#FF49F8"/>
<path d="M937.03 196.039L852.97 244.571L852.97 404.369L895 300.204L937.03 355.836L937.03 196.039Z" fill="#2630F7"/>
<path d="M515.646 439.525L599.707 390.993L599.707 550.791L557.677 495.158L515.646 599.323L515.646 439.525Z" fill="black"/>
<path d="M-46.559 763.116L37.5013 714.584L37.5013 874.382L-4.52881 818.749L-46.559 922.914L-46.559 763.116Z" fill="#FF49F8"/>
<path d="M149.943 650.464L65.8822 698.996L65.8822 858.794L107.912 754.629L149.942 810.262L149.943 650.464Z" fill="black"/>
<path d="M374.825 520.628L290.764 569.16L290.764 728.958L332.794 624.793L374.825 680.426L374.825 520.628Z" fill="#FF49F8"/>
<path d="M178.323 634.28L262.384 585.748L262.384 745.546L220.353 689.913L178.323 794.078L178.323 634.28Z" fill="#2630F7"/>
<path d="M1049.47 131.121L965.411 179.653L1007.44 315.185L1049.47 131.121Z" fill="#FF49F8"/>
<path d="M1161.86 65.7831L1077.8 114.315L1119.83 249.847L1161.86 65.7831Z" fill="#2630F7"/>
<path d="M403.205 504.445L487.266 455.912L445.236 639.976L403.205 504.445Z" fill="#2630F7"/>
<path d="M740.529 309.692L824.589 261.16L782.559 445.224L740.529 309.692Z" fill="black"/>
<path d="M1190 49.5323L1274.06 0.999996L1274.06 160.798L1232.03 105.165L1190 209.33L1190 49.5323Z" fill="black"/>
</svg>
