<svg width="1920" height="174" viewBox="0 0 1920 174" fill="none" xmlns="http://www.w3.org/2000/svg">
<path d="M1080.32 0H974.625V174L1027.47 87L1080.32 174L1080.32 0Z" fill="#2630F7"/>
<path d="M1363.07 0H1257.38V174L1310.22 87L1363.07 174L1363.07 0Z" fill="#2630F7"/>
<path d="M1221.69 0H1116V174L1168.85 87L1221.69 174L1221.69 0Z" fill="#FF49F8"/>
<path d="M1787.19 0H1681.5V174L1734.35 87L1787.19 174L1787.19 0Z" fill="#2630F7"/>
<path d="M1928.57 0H1822.88V174L1875.72 87L1928.57 174L1928.57 0Z" fill="#FF49F8"/>
<path d="M90.6912 0H-15V174L37.8456 87L90.6911 174L90.6912 0Z" fill="black"/>
<path d="M232.066 0H126.375V174L179.221 87L232.066 174L232.066 0Z" fill="#2630F7"/>
<path d="M373.441 0H267.75V174L320.596 87L373.441 174L373.441 0Z" fill="#FF49F8"/>
<path d="M656.191 0H550.5V174L603.346 87L656.191 174L656.191 0Z" fill="black"/>
<path d="M514.816 0H409.125V174L461.971 87L514.816 174L514.816 0Z" fill="#2630F7"/>
<path d="M1504.44 0H1398.75L1451.6 174L1504.44 0Z" fill="black"/>
<path d="M1645.82 0H1540.12L1592.97 174L1645.82 0Z" fill="#FF49F8"/>
<path d="M797.566 0H691.875L744.721 174L797.566 0Z" fill="#FF49F8"/>
<path d="M938.941 0H833.25L886.096 174L938.941 0Z" fill="black"/>
</svg>
