<svg width="1920" height="274" viewBox="0 0 1920 274" fill="none" xmlns="http://www.w3.org/2000/svg">
<path d="M32 274H1920V0H32V274Z" fill="black"/>
<path fill-rule="evenodd" clip-rule="evenodd" d="M130.086 57.081C127.883 57.3251 125.645 58.0383 124.12 58.9813C123.158 59.577 121.83 60.8051 121.119 61.7594C119.831 63.485 118.911 66.0895 118.56 69.0015C118.243 71.6333 118.343 77.3757 118.755 80.2591C119.364 84.5136 120.847 88.1724 123.555 92.0987C123.967 92.6961 125.948 95.3479 127.956 97.9917C133.688 105.537 134.176 106.237 135.151 108.283C136.257 110.608 136.506 112.372 136.431 117.383C136.388 120.29 136.357 120.763 136.159 121.516C135.856 122.668 135.452 123.398 134.878 123.828C134.222 124.319 133.691 124.447 132.538 124.394C131.706 124.356 131.477 124.303 130.999 124.034C130.171 123.567 129.698 122.885 129.338 121.64C129.167 121.051 129.147 120.289 129.112 113.307L129.075 105.622H117.806L117.846 114.773C117.889 124.715 117.873 124.431 118.507 126.748C118.832 127.938 119.652 129.741 120.277 130.644C120.925 131.58 122.355 132.959 123.315 133.576C124.693 134.461 126.425 135.1 128.397 135.451C129.694 135.682 134.163 135.779 135.738 135.609C140.131 135.137 143.262 133.411 145.442 130.259C146.494 128.738 147.225 127.029 147.782 124.788C148.449 122.105 148.517 121.311 148.517 116.104C148.517 112.879 148.473 111.08 148.377 110.293C147.813 105.667 146.558 102.436 143.696 98.2357C143.228 97.5487 140.828 94.2982 138.363 91.0125C135.898 87.7267 133.533 84.5266 133.108 83.901C131.621 81.7112 130.753 79.8798 130.327 78.0324C130.151 77.2656 130.106 76.6106 130.063 74.1674C130.005 70.8524 130.087 69.9781 130.554 68.9427C131.043 67.8614 131.891 67.3876 133.337 67.3876C134.985 67.3876 136.032 68.3139 136.343 70.046C136.417 70.4596 136.457 72.8696 136.457 76.8576V83.0289H147.532L147.489 75.4527C147.452 69.0228 147.418 67.7121 147.269 66.7902C146.777 63.7596 145.887 61.7071 144.4 60.1735C142.896 58.6223 140.918 57.7034 138.037 57.2171C136.827 57.0128 131.52 56.922 130.086 57.081ZM84.0083 134.841H95.3828V100.951H103.071V134.841H114.551V57.7205H103.071V88.5685H95.3828V57.7205H84.0083V134.841ZM151.729 134.841H178.269V123.11H163.209V100.843H174.478V89.1116H163.209V68.9083H177.637V57.7205H151.729V134.841ZM198.064 57.9105C198.061 58.0151 196.01 75.3549 193.506 96.4435L188.954 134.786L194.002 134.815C196.779 134.83 199.074 134.818 199.103 134.788C199.133 134.758 199.491 131.506 199.9 127.562L200.644 120.392L208.862 120.448L210.346 134.786L221.369 134.843L221.311 134.489C221.279 134.294 219.082 116.941 216.43 95.9275L211.606 57.7205H204.838C198.464 57.7205 198.069 57.7315 198.064 57.9105ZM223.135 134.841H234.51V100.408L235.905 100.411C238.883 100.417 240.085 100.691 240.775 101.522C241.558 102.466 241.501 101.35 241.573 116.973C241.619 126.976 241.673 131.202 241.762 131.745C241.949 132.89 242.178 133.754 242.438 134.298L242.672 134.786L253.994 134.842V134.573C253.994 134.424 253.855 133.943 253.686 133.504C252.966 131.635 253.012 132.742 252.941 115.452C252.881 100.997 252.862 99.7489 252.689 98.996C252.114 96.4887 250.982 94.8773 248.937 93.6582L248.092 93.1539L248.699 92.8027C249.034 92.6096 249.716 92.027 250.215 91.5079C250.984 90.708 251.205 90.3915 251.665 89.4306C252.305 88.096 252.681 86.6628 252.842 84.9477C252.917 84.1515 252.942 80.9181 252.915 75.5341C252.87 66.6209 252.86 66.457 252.243 64.3463C251.141 60.5779 248.529 58.4708 244.227 57.8803C243.312 57.7547 241.171 57.7243 233.114 57.7226L223.135 57.7205V134.841ZM254.942 68.9083H264.526V134.841H275.795V68.9083H285.379V57.7205H254.942V68.9083ZM304.925 58.127C304.891 58.3514 302.849 75.545 300.389 96.3349C297.928 117.125 295.888 134.293 295.856 134.488L295.796 134.841H300.909C303.721 134.841 306.022 134.828 306.022 134.812C306.022 134.796 306.354 131.608 306.759 127.726C307.165 123.844 307.496 120.607 307.496 120.531C307.496 120.423 308.363 120.394 311.599 120.394H315.702L315.759 120.747C315.833 121.203 317.186 134.371 317.186 134.638C317.186 134.833 317.391 134.841 322.716 134.841H328.247L328.185 134.433C328.151 134.209 325.956 116.869 323.306 95.9004L318.489 57.7748L304.987 57.7188L304.925 58.127ZM330.035 134.841H340.251V112.827C340.251 100.72 340.275 90.8383 340.304 90.8688C340.334 90.8993 342.73 100.622 345.629 112.475C348.528 124.328 350.946 134.209 351.003 134.433L351.107 134.841H360.367V57.7205H350.045L350.037 78.2768C350.033 89.5828 350.001 98.7598 349.966 98.6702C349.932 98.5806 347.743 89.3424 345.102 78.141L340.3 57.7748L330.035 57.7184V134.841ZM364.579 134.841H374.071C384.361 134.841 384.687 134.825 386.666 134.234C390.778 133.005 393.298 129.94 394.273 124.983C394.768 122.467 394.754 123.344 394.754 95.9547C394.754 71.9313 394.74 69.9536 394.571 68.7377C393.674 62.3121 390.96 59.1013 385.472 57.9752C384.627 57.8017 383.586 57.78 374.558 57.7477L364.579 57.7121V134.841ZM239.611 68.5259C240.303 68.7911 240.951 69.4779 241.263 70.2762L241.514 70.9178L241.545 78.0867C241.566 83.0112 241.539 85.4819 241.458 85.9783C241.209 87.5035 240.398 88.6701 239.268 89.1262C238.741 89.3389 238.424 89.3728 236.59 89.4138L234.51 89.4602V68.2382L236.801 68.2824C238.689 68.3188 239.183 68.3616 239.611 68.5259ZM380.659 68.419C381.651 68.7227 382.348 69.5713 382.781 70.9999C382.938 71.5188 382.957 73.686 382.988 95.3573C383.013 113.09 382.991 119.352 382.899 119.96C382.726 121.11 382.439 121.821 381.902 122.438C381.083 123.378 380.095 123.651 377.507 123.652L375.954 123.653V68.2566H378.041C379.587 68.2566 380.266 68.2987 380.659 68.419ZM206.126 94.5426C206.908 101.98 207.574 108.225 207.605 108.419L207.663 108.772H201.743L201.806 108.31C201.859 107.917 204.577 81.3294 204.611 80.8594C204.622 80.715 204.629 80.7146 204.663 80.8565C204.686 80.9461 205.343 87.1049 206.126 94.5426ZM313.06 95.0857L314.504 108.718L311.616 108.746C310.028 108.762 308.71 108.756 308.686 108.732C308.643 108.687 311.331 82.1514 311.466 81.291C311.533 80.8632 311.547 80.8429 311.579 81.1281C311.599 81.3073 312.266 87.5882 313.06 95.0857ZM158.996 138.214C157.134 138.422 154.973 139.026 153.677 139.702C151.642 140.763 149.973 142.494 148.939 144.616C147.583 147.397 147.108 150.563 147.236 155.967C147.307 158.964 147.417 160.341 147.733 162.213C148.291 165.517 149.443 168.54 151.284 171.531C152.267 173.129 152.647 173.651 156.991 179.375C162.478 186.604 163.107 187.505 164.001 189.421C165.044 191.653 165.222 192.693 165.288 196.936C165.375 202.531 164.986 204.243 163.416 205.161C162.864 205.484 162.79 205.498 161.629 205.498C160.484 205.498 160.387 205.48 159.856 205.177C159.19 204.797 158.843 204.399 158.496 203.62C157.981 202.467 157.95 201.925 157.946 194.066L157.943 186.761H146.664L146.703 195.967C146.747 205.963 146.729 205.637 147.361 207.888C148.183 210.817 149.709 213.035 151.946 214.555C153.417 215.554 155.123 216.206 157.309 216.605C158.814 216.879 164.414 216.87 165.894 216.591C167.942 216.205 169.67 215.528 171.134 214.536C174.377 212.34 176.329 208.73 177.13 203.443C177.401 201.657 177.52 195.415 177.331 192.876C176.988 188.274 176.066 185.18 173.982 181.638C172.731 179.512 172.459 179.135 165.379 169.708C161.319 164.301 160.229 162.568 159.53 160.411C158.976 158.701 158.867 157.611 158.915 154.261C158.952 151.584 158.978 151.228 159.184 150.591C159.618 149.241 160.372 148.659 161.82 148.557C163.447 148.442 164.474 149.044 165.009 150.428L165.262 151.079L165.326 164.168H176.374L176.373 157.678C176.371 149.178 176.258 147.601 175.469 145.16C174.924 143.472 174.388 142.568 173.214 141.358C172.663 140.79 171.944 140.163 171.614 139.964C170.378 139.216 168.795 138.677 166.895 138.356C165.704 138.155 160.384 138.06 158.996 138.214ZM208.233 138.165C205.419 138.455 202.978 139.337 201.221 140.7C198.364 142.918 196.695 146.374 196.05 151.405C195.937 152.28 195.91 157.594 195.91 178.723V204.955L196.147 206.299C197.019 211.242 199.546 214.918 203.025 216.301C204.481 216.88 205.123 216.994 206.969 217C208.834 217.006 209.499 216.886 210.878 216.293C213.428 215.198 216.09 212.412 217.445 209.419L217.834 208.56L218.166 209.799C218.349 210.48 218.772 212.149 219.105 213.508L219.712 215.979L226.19 215.98L226.137 169.11L210.286 169.055V181.004H215.347L215.289 201.913L215.043 202.542C214.358 204.294 213.09 205.149 211.18 205.15C209.754 205.151 208.804 204.529 208.14 203.159C207.461 201.759 207.495 203.162 207.495 176.985C207.495 154.697 207.507 153.095 207.678 152.409C208.199 150.32 209.074 149.489 210.83 149.414C212.835 149.328 213.862 150.109 214.376 152.109C214.498 152.583 214.54 153.817 214.576 158.004L214.622 163.299H225.682L225.634 157.189C225.584 150.903 225.538 150.124 225.081 147.848C224.836 146.629 224.318 145.089 223.811 144.073C222.218 140.883 219.613 139.091 215.503 138.357C214.589 138.194 209.31 138.055 208.233 138.165ZM286.274 138.22C284.072 138.464 281.834 139.177 280.309 140.12C279.346 140.716 278.019 141.944 277.307 142.898C276.02 144.624 275.1 147.229 274.749 150.141C274.432 152.772 274.531 158.515 274.944 161.398C275.499 165.278 276.818 168.727 279.075 172.206C279.676 173.132 282.054 176.374 284.36 179.411C289.872 186.671 290.487 187.559 291.458 189.664C292.452 191.819 292.69 193.622 292.62 198.451C292.577 201.433 292.547 201.899 292.348 202.655C291.763 204.877 290.766 205.649 288.629 205.533C286.972 205.443 286.063 204.637 285.527 202.779C285.356 202.19 285.336 201.428 285.301 194.446L285.263 186.761H273.995L274.035 195.912C274.078 205.861 274.061 205.561 274.699 207.888C275.026 209.082 275.844 210.885 276.466 211.783C277.109 212.711 278.541 214.097 279.481 214.7C280.869 215.591 282.507 216.198 284.537 216.576C285.867 216.824 290.272 216.926 291.927 216.748C296.32 216.276 299.45 214.551 301.631 211.398C302.683 209.877 303.414 208.169 303.971 205.927C304.638 203.244 304.705 202.45 304.705 197.243C304.705 194.018 304.662 192.219 304.566 191.432C304.001 186.808 302.751 183.586 299.886 179.375C299.419 178.688 297.019 175.437 294.553 172.152C292.087 168.866 289.721 165.666 289.297 165.04C287.809 162.849 286.941 161.018 286.516 159.172C286.339 158.405 286.295 157.75 286.252 155.306C286.194 151.992 286.276 151.117 286.743 150.082C287.232 149.001 288.079 148.527 289.525 148.527C290.9 148.527 291.955 149.249 292.383 150.483C292.579 151.046 292.592 151.44 292.623 157.624L292.656 164.168H303.705V157.504C303.705 149.148 303.587 147.531 302.797 145.094C301.559 141.27 298.83 139.113 294.279 138.361C293.012 138.152 287.729 138.059 286.274 138.22ZM319.187 138.212C316.152 138.586 313.74 139.666 311.871 141.487C309.372 143.921 308.039 147.274 307.707 151.966C307.574 153.83 307.574 200.321 307.706 202.426C308.123 209.064 310.334 213.282 314.5 215.386C316.712 216.504 318.363 216.843 322 216.927C326.186 217.023 328.48 216.666 330.697 215.57C334.183 213.846 336.305 210.701 337.237 205.878C337.693 203.519 337.723 202.667 337.723 192.282V182.416H326.568L326.534 192.219C326.501 201.762 326.494 202.041 326.283 202.746C325.869 204.127 325.052 205.051 323.985 205.348C323.315 205.534 321.745 205.42 321.236 205.147C320.283 204.637 319.648 203.569 319.398 202.058C319.319 201.576 319.294 193.98 319.315 176.714L319.345 152.057L319.582 151.409C319.889 150.569 320.297 150.06 320.933 149.722C321.4 149.474 321.564 149.45 322.765 149.45C323.996 149.45 324.12 149.47 324.625 149.744C325.666 150.311 326.226 151.286 326.446 152.916C326.517 153.446 326.559 156.382 326.559 160.863V167.97H337.735L337.696 159.199C337.653 149.689 337.648 149.598 337.032 147.153C335.768 142.139 332.761 139.376 327.509 138.406C326.5 138.22 325.763 138.176 323.136 138.148C321.398 138.13 319.621 138.158 319.187 138.212ZM388.131 138.219C382.587 138.821 379.048 141.483 377.118 146.501C376.376 148.432 375.908 150.993 375.746 154.012C375.61 156.559 375.608 197.97 375.744 200.61C376.018 205.938 377.177 209.714 379.365 212.406C380.972 214.383 382.956 215.625 385.68 216.359C387.446 216.834 388.161 216.902 391.383 216.9C394.052 216.898 394.597 216.868 395.701 216.662C402.195 215.453 405.485 211.383 406.572 203.217C406.748 201.896 406.76 200.218 406.76 177.311C406.76 154.44 406.747 152.725 406.573 151.418C405.453 143.05 401.654 138.948 394.34 138.215C393.022 138.082 389.36 138.085 388.131 138.219ZM423.242 138.164C420.248 138.525 418.375 139.11 416.656 140.223C413.346 142.366 411.533 145.654 410.638 151.134C410.465 152.195 410.45 153.939 410.416 176.442C410.379 201.061 410.391 201.968 410.773 204.303C411.832 210.781 414.848 214.734 419.872 216.232C421.8 216.807 422.629 216.896 426.033 216.896C428.64 216.896 429.377 216.861 430.246 216.698C436.507 215.517 439.892 211.71 441.037 204.561C441.466 201.878 441.477 201.116 441.438 176.279C441.404 154.286 441.386 152.283 441.218 151.134C440.086 143.387 436.803 139.563 430.246 138.355C429.434 138.206 424.104 138.06 423.242 138.164ZM84.0083 215.98H93.4999C101.53 215.98 103.161 215.954 104.091 215.811C109.416 214.996 112.53 211.905 113.696 206.277C114.196 203.866 114.182 204.677 114.182 177.039C114.182 152.53 114.171 150.894 113.994 149.689C113.487 146.246 112.578 144.045 110.925 142.254C109.613 140.832 108.37 140.084 106.286 139.461C104.37 138.888 103.76 138.86 93.4817 138.86H84.0083V215.98ZM118.237 215.98H144.672V204.249H129.612V181.982H140.986V170.251H129.612V150.047H144.04V138.86H118.237V215.98ZM180.586 215.98H191.961V138.86H180.586V215.98ZM230.086 215.98H240.407L240.46 172.222L245.615 193.313C248.449 204.914 250.86 214.759 250.972 215.192L251.174 215.98H260.418V138.86H250.097L250.091 159.416C250.087 170.722 250.048 179.874 250.005 179.755C249.962 179.636 247.773 170.385 245.141 159.199L240.355 138.86L230.086 138.86V215.98ZM341.304 215.98H352.678V182.09H360.367V215.98H371.846V138.86H360.367V169.708H352.678V138.86H341.304V215.98ZM445.36 215.98H470.636V204.032H456.734V138.86H445.36V215.98ZM100.439 149.677C101.396 150.133 101.957 150.999 102.311 152.564C102.479 153.303 102.492 155.065 102.492 176.985C102.492 199.669 102.484 200.645 102.295 201.479C101.943 203.034 101.396 203.84 100.359 204.33C99.6226 204.677 98.8059 204.787 96.9363 204.79L95.3828 204.792V149.381L97.6735 149.415C99.7322 149.447 100.012 149.473 100.439 149.677ZM393.106 149.775C394.053 150.312 394.65 151.259 394.991 152.766C395.163 153.525 395.175 155.128 395.175 177.365C395.175 199.915 395.165 201.201 394.984 202.065C394.627 203.772 393.825 204.895 392.681 205.287C391.843 205.574 390.29 205.473 389.513 205.081C388.833 204.738 388.279 204.13 387.918 203.33C387.353 202.077 387.381 203.451 387.381 177.365C387.381 154.166 387.389 153.11 387.576 152.36C387.934 150.918 388.661 150.003 389.772 149.596C390.213 149.434 390.562 149.398 391.436 149.423C392.43 149.453 392.599 149.488 393.106 149.775ZM427.728 149.747C428.708 150.271 429.418 151.416 429.685 152.909C429.798 153.539 429.825 158.217 429.825 177.583V201.479L429.587 202.402C429.291 203.55 428.787 204.41 428.14 204.872C427.467 205.352 426.944 205.474 425.77 205.424C424.987 205.392 424.657 205.326 424.251 205.123C423.122 204.557 422.427 203.428 422.138 201.692C421.993 200.82 421.978 198.012 422.006 176.872C422.035 154.227 422.046 153.002 422.227 152.387C422.585 151.172 423.04 150.432 423.708 149.975C424.4 149.503 424.87 149.396 426.086 149.43C427.04 149.457 427.266 149.501 427.728 149.747Z" fill="#FF49F8"/>
<path d="M1676.02 152.259V174.769H1691.75C1696.99 174.769 1698.65 172.888 1698.65 168.218C1698.65 163.19 1696.45 161.568 1690.92 161.568H1678.3V154.53H1696.77V152.259H1676.02ZM1678.3 163.839H1691.59C1695.15 163.839 1696.36 164.909 1696.36 168.282C1696.36 171.753 1695.05 172.499 1691.81 172.499H1678.3V163.839Z" fill="#FF49F8"/>
<path d="M1725.67 172.499H1703.94V170.553C1703.94 168.347 1705.27 166.336 1709.75 166.336H1717.7C1724.21 166.336 1725.67 164.325 1725.67 159.59C1725.67 153.816 1723.89 152 1717.73 152H1709.78C1704.44 152 1701.84 153.946 1701.84 158.292H1704.32C1704.32 155.73 1705.43 154.27 1709.75 154.27H1717.7C1722.34 154.27 1723.39 155.698 1723.39 159.59C1723.39 162.963 1722.05 164.066 1717.73 164.066H1709.78C1704.13 164.066 1701.65 166.596 1701.65 170.553V174.769H1725.67V172.499Z" fill="#FF49F8"/>
<path d="M1753.27 172.499H1731.53V170.553C1731.53 168.347 1732.86 166.336 1737.34 166.336H1745.29C1751.81 166.336 1753.27 164.325 1753.27 159.59C1753.27 153.816 1751.49 152 1745.32 152H1737.38C1732.04 152 1729.43 153.946 1729.43 158.292H1731.91C1731.91 155.73 1733.02 154.27 1737.34 154.27H1745.29C1749.93 154.27 1750.98 155.698 1750.98 159.59C1750.98 162.963 1749.64 164.066 1745.32 164.066H1737.38C1731.72 164.066 1729.24 166.596 1729.24 170.553V174.769H1753.27V172.499Z" fill="#FF49F8"/>
<path d="M1780.07 172.499H1760.46C1762.24 171.299 1762.87 168.639 1762.87 166.109V154.53H1780.07V172.499ZM1782.35 152.259H1760.58V166.726C1760.58 169.515 1759.5 171.202 1757.72 172.499H1756.55V180.867H1758.71V174.769H1782V180.867H1784.17V172.499H1782.35V152.259Z" fill="#FF49F8"/>
<path d="M1796.82 164.26H1803.65C1806.96 164.26 1808.55 164.52 1808.55 168.153C1808.55 171.461 1807.18 172.499 1803.65 172.499H1795.17C1792.18 172.499 1790.05 171.461 1789.92 168.412H1787.63C1787.63 172.758 1789.99 174.769 1795.17 174.769H1803.14C1807.4 174.769 1810.84 173.472 1810.84 168.153C1810.84 163.093 1807.72 163.158 1807.72 163.028C1807.72 162.963 1810.84 162.639 1810.84 157.838C1810.84 153.233 1807.02 152.259 1803.14 152.259H1795.14C1787.76 152.259 1787.63 157.352 1787.63 158.747H1789.99C1789.99 155.892 1791.96 154.53 1795.14 154.53H1803.62C1806.96 154.53 1808.55 155.957 1808.55 158.228C1808.55 161.341 1806.77 161.99 1803.65 161.99H1796.82V164.26Z" fill="#FF49F8"/>
<path d="M1829.59 174.769V152.259H1826.1L1819.55 159.006L1821.14 160.563L1827.11 154.595V174.769H1829.59Z" fill="#FF49F8"/>
<path d="M1865.7 159.849V167.05C1865.7 171.429 1864.65 172.499 1860.01 172.499H1850.35C1846.06 172.499 1844.47 171.364 1844.47 167.05V159.849C1844.47 155.471 1846.22 154.27 1850.35 154.27H1860.01C1864.4 154.27 1865.7 155.406 1865.7 159.849ZM1867.99 167.05V160.044C1867.99 153.492 1865.39 152 1860.05 152H1850.38C1844.15 152 1842.18 154.27 1842.18 160.044V167.05C1842.18 172.823 1844.41 174.769 1850.38 174.769H1860.05C1865.89 174.769 1867.99 173.472 1867.99 167.05Z" fill="#FF49F8"/>
<path d="M1504.88 204.026C1504.88 206.88 1503.39 208.178 1499.19 208.178H1489.53C1485.15 208.178 1483.65 206.88 1483.65 202.404V195.917C1483.65 191.311 1485.05 189.949 1489.53 189.949H1499.19C1503.58 189.949 1504.88 191.571 1504.88 194.101H1507.17C1507.17 189.754 1504.5 187.679 1499.16 187.679H1489.5C1483.59 187.679 1481.36 189.949 1481.36 195.917V202.404C1481.36 208.178 1483.59 210.448 1489.5 210.448H1499.16C1505.01 210.448 1507.17 208.243 1507.17 204.026H1504.88Z" fill="#FF49F8"/>
<path d="M1513.15 202.469H1515.6L1525.07 210.448H1528.37L1517.63 201.561L1527.55 194.425H1523.89L1515.63 200.523H1513.15V194.425H1510.86V210.448H1513.15V202.469Z" fill="#FF49F8"/>
<path d="M1530.38 194.425V217H1532.67V208.729C1532.8 208.924 1533.97 210.448 1537.24 210.448H1543.41C1548.08 210.448 1550.08 207.886 1550.08 204.221V200.718C1550.08 197.312 1548.43 194.425 1543.41 194.425H1537.05C1533.94 194.425 1532.8 195.95 1532.67 196.144V194.425H1530.38ZM1532.67 200.718C1532.67 198.252 1534.13 196.371 1537.5 196.371H1542.58C1545.95 196.371 1547.8 197.734 1547.8 200.718V204.221C1547.8 207.334 1545.98 208.502 1542.58 208.502H1537.47C1534.1 208.502 1532.67 206.621 1532.67 204.221V200.718Z" fill="#FF49F8"/>
<path d="M1555.51 194.425H1553.23V210.448H1567.34C1570.71 210.448 1572.61 209.151 1572.61 206.361V204.415C1572.61 202.21 1571.15 200.653 1567.72 200.653H1555.51V194.425ZM1555.51 202.599H1566.89C1569.75 202.599 1570.32 203.442 1570.32 204.934V206.102C1570.32 207.529 1569.66 208.502 1566.86 208.502H1555.51V202.599ZM1578.4 194.425H1576.11V210.448H1578.4V194.425Z" fill="#FF49F8"/>
<path d="M1584.44 202.923H1599.64V210.448H1601.92V194.425H1599.64V200.977H1584.44V194.425H1582.16V210.448H1584.44V202.923Z" fill="#FF49F8"/>
<path d="M1607.91 202.923H1623.1V210.448H1625.39V194.425H1623.1V200.977H1607.91V194.425H1605.62V210.448H1607.91V202.923Z" fill="#FF49F8"/>
<path d="M1631.37 194.425H1629.08V210.448H1632.99L1645.93 196.242H1646.56V210.448H1648.85V194.425H1645.04L1632.1 208.632H1631.37V194.425Z" fill="#FF49F8"/>
<path d="M1654.84 202.469H1657.28L1666.76 210.448H1670.06L1659.32 201.561L1669.23 194.425H1665.58L1657.32 200.523H1654.84V194.425H1652.55V210.448H1654.84V202.469Z" fill="#FF49F8"/>
<path d="M1671.81 200.653V204.156C1671.81 208.243 1674.04 210.448 1678.68 210.448H1684.94C1690.02 210.448 1691.84 207.529 1691.84 204.156V200.653C1691.84 197.312 1690.18 194.36 1684.97 194.36H1678.68C1673.72 194.36 1671.81 197.117 1671.81 200.653ZM1674.1 204.156V200.653C1674.1 197.539 1675.72 196.306 1678.84 196.306H1684.81C1687.86 196.306 1689.55 197.863 1689.55 200.653V204.156C1689.55 207.269 1687.64 208.502 1684.78 208.502H1678.84C1675.72 208.502 1674.1 207.075 1674.1 204.156Z" fill="#FF49F8"/>
<path d="M1697.36 196.306H1709.15C1711.06 196.306 1712.14 197.085 1712.14 198.512V199.161C1712.14 200.653 1711.12 201.366 1709.21 201.366H1697.36V196.306ZM1695.07 210.448H1709.18C1713.12 210.448 1714.84 208.859 1714.84 206.296V205.583C1714.84 204.221 1714.01 202.761 1711.95 202.274C1713.38 202.015 1714.43 200.912 1714.43 199.161V198.512C1714.43 196.014 1712.71 194.36 1708.83 194.36H1695.07V210.448ZM1697.36 203.312H1708.77C1712.14 203.312 1712.55 204.285 1712.55 205.583V206.296C1712.55 207.724 1711.34 208.502 1709.12 208.502H1697.36V203.312Z" fill="#FF49F8"/>
<path d="M1718.15 204.415V206.361C1718.15 209.151 1720.06 210.448 1723.43 210.448H1732.33C1734.24 210.448 1735.13 209.151 1735.13 209.151V210.448H1737.42V200.069C1737.42 196.566 1735.76 194.425 1731.5 194.425H1724.61C1719.24 194.425 1718.95 197.117 1718.95 199.031H1721.3C1721.3 197.571 1721.49 196.371 1725.18 196.371H1731.25C1733.98 196.371 1735.13 197.863 1735.13 199.68V201.918C1735.13 201.918 1734.81 200.653 1732.2 200.653H1723.05C1719.62 200.653 1718.15 202.21 1718.15 204.415ZM1723.88 202.599H1731.63C1733.86 202.599 1735.13 203.507 1735.13 205.518C1735.13 207.529 1734.01 208.502 1731.63 208.502H1723.88C1721.14 208.502 1720.44 207.529 1720.44 206.102V204.934C1720.44 203.442 1721.02 202.599 1723.88 202.599Z" fill="#FF49F8"/>
<path d="M1774.29 208.178H1754.68C1756.46 206.978 1757.1 204.318 1757.1 201.788V190.209H1774.29V208.178ZM1776.58 187.938H1754.81V202.404C1754.81 205.194 1753.73 206.88 1751.95 208.178H1750.77V216.546H1752.93V210.448H1776.23V216.546H1778.39V208.178H1776.58V187.938Z" fill="#FF49F8"/>
<path d="M1781.1 204.415V206.361C1781.1 209.151 1783.01 210.448 1786.38 210.448H1795.27C1797.18 210.448 1798.07 209.151 1798.07 209.151V210.448H1800.36V200.069C1800.36 196.566 1798.71 194.425 1794.45 194.425H1787.55C1782.18 194.425 1781.89 197.117 1781.89 199.031H1784.25C1784.25 197.571 1784.44 196.371 1788.12 196.371H1794.19C1796.93 196.371 1798.07 197.863 1798.07 199.68V201.918C1798.07 201.918 1797.75 200.653 1795.15 200.653H1785.99C1782.56 200.653 1781.1 202.21 1781.1 204.415ZM1786.82 202.599H1794.57C1796.8 202.599 1798.07 203.507 1798.07 205.518C1798.07 207.529 1796.96 208.502 1794.57 208.502H1786.82C1784.09 208.502 1783.39 207.529 1783.39 206.102V204.934C1783.39 203.442 1783.96 202.599 1786.82 202.599Z" fill="#FF49F8"/>
<path d="M1803.82 194.425V217H1806.11V208.729C1806.24 208.924 1807.41 210.448 1810.69 210.448H1816.85C1821.52 210.448 1823.53 207.886 1823.53 204.221V200.718C1823.53 197.312 1821.87 194.425 1816.85 194.425H1810.5C1807.38 194.425 1806.24 195.95 1806.11 196.144V194.425H1803.82ZM1806.11 200.718C1806.11 198.252 1807.57 196.371 1810.94 196.371H1816.03C1819.4 196.371 1821.24 197.734 1821.24 200.718V204.221C1821.24 207.334 1819.43 208.502 1816.03 208.502H1810.91C1807.54 208.502 1806.11 206.621 1806.11 204.221V200.718Z" fill="#FF49F8"/>
<path d="M1828.96 194.425H1826.67V210.448H1840.78C1844.15 210.448 1846.05 209.151 1846.05 206.361V204.415C1846.05 202.21 1844.59 200.653 1841.16 200.653H1828.96V194.425ZM1828.96 202.599H1840.33C1843.19 202.599 1843.77 203.442 1843.77 204.934V206.102C1843.77 207.529 1843.1 208.502 1840.3 208.502H1828.96V202.599Z" fill="#FF49F8"/>
<path d="M1864.97 204.221V210.448H1867.26V194.425H1853.18C1849.81 194.425 1847.9 195.723 1847.9 198.512V200.458C1847.9 202.664 1849.37 204.221 1852.8 204.221H1853.47L1846.54 210.448H1849.78L1856.14 204.221H1864.97ZM1864.97 202.274H1853.63C1850.77 202.274 1850.19 201.431 1850.19 199.939V198.771C1850.19 197.344 1850.86 196.371 1853.66 196.371H1864.97V202.274Z" fill="#FF49F8"/>
<rect width="39" height="274" fill="black"/>
<rect x="1276" width="644" height="274" fill="black"/>
<path d="M1626.83 143.518H1639.38C1643.04 143.518 1645.69 144.355 1647.32 146.028C1649 147.666 1649.83 150.315 1649.83 153.975V155.543C1649.83 159.203 1649 161.87 1647.32 163.543C1645.69 165.181 1643.04 166 1639.38 166H1617.42V129.401H1646.43V136.721H1626.83V143.518ZM1640.42 153.975C1640.42 151.883 1639.38 150.838 1637.28 150.838H1626.83V158.68H1637.28C1639.38 158.68 1640.42 157.635 1640.42 155.543V153.975ZM1680.68 140.904C1680.68 143.867 1679.42 146.428 1676.91 148.59C1676.15 149.252 1675.31 149.914 1674.4 150.576L1663.16 158.68H1680.68V166H1652.45V156.066L1671.27 142.472V139.858C1671.27 137.767 1670.22 136.721 1668.13 136.721H1653.49V129.401H1670.22C1673.88 129.401 1676.53 130.238 1678.17 131.911C1679.84 133.549 1680.68 136.198 1680.68 139.858V140.904ZM1711.52 140.904C1711.52 143.867 1710.26 146.428 1707.75 148.59C1706.99 149.252 1706.15 149.914 1705.24 150.576L1694 158.68H1711.52V166H1683.28V156.066L1702.11 142.472V139.858C1702.11 137.767 1701.06 136.721 1698.97 136.721H1684.33V129.401H1701.06C1704.72 129.401 1707.37 130.238 1709.01 131.911C1710.68 133.549 1711.52 136.198 1711.52 139.858V140.904ZM1721.44 129.401H1748.89V158.68H1752.81V172.797H1743.93L1743.4 166H1723.01L1722.49 172.797H1713.6V158.68H1717C1718.01 157.53 1718.76 156.24 1719.25 154.811C1719.77 153.347 1720.07 152.023 1720.14 150.838L1721.44 129.401ZM1739.48 158.68V136.721H1729.81L1729.02 149.792C1728.92 151.918 1728.4 154.062 1727.46 156.223C1727.07 157.129 1726.64 157.948 1726.15 158.68H1739.48ZM1774.26 166.523C1768.44 166.523 1761.99 166.174 1754.92 165.477V158.419C1762.62 158.942 1768.37 159.203 1772.17 159.203C1772.97 159.203 1773.6 158.977 1774.05 158.523C1774.54 158.035 1774.79 157.391 1774.79 156.589V154.498C1774.79 152.406 1773.74 151.361 1771.65 151.361H1760.67V144.041H1770.6C1772.7 144.041 1773.74 142.995 1773.74 140.904V139.858C1773.74 137.767 1772.7 136.721 1770.6 136.721H1755.44V129.401H1773.22C1776.63 129.401 1779.14 130.186 1780.75 131.754C1782.35 133.288 1783.15 135.641 1783.15 138.812C1783.15 140.904 1782.66 142.612 1781.69 143.936C1780.75 145.226 1779.49 146.132 1777.92 146.655C1780.75 147.422 1782.66 149.304 1783.68 152.302C1784.02 153.382 1784.2 154.637 1784.2 156.066V156.589C1784.2 160.005 1783.4 162.514 1781.79 164.118C1780.19 165.721 1777.68 166.523 1774.26 166.523ZM1794.41 166V137.505L1788.4 139.597L1785.78 133.584L1795.46 129.401H1803.82V166H1794.41ZM1830.5 139.335C1830.5 137.244 1829.46 136.198 1827.36 136.198H1821.61C1819.52 136.198 1818.48 137.244 1818.48 139.335V156.066C1818.48 158.157 1819.52 159.203 1821.61 159.203H1827.36C1829.46 159.203 1830.5 158.157 1830.5 156.066V139.335ZM1839.91 156.066C1839.91 159.726 1839.08 162.392 1837.4 164.066C1835.76 165.704 1833.12 166.523 1829.46 166.523H1819.52C1815.86 166.523 1813.2 165.704 1811.52 164.066C1809.88 162.392 1809.07 159.726 1809.07 156.066V139.335C1809.07 135.675 1809.88 133.026 1811.52 131.388C1813.2 129.715 1815.86 128.879 1819.52 128.879H1829.46C1833.12 128.879 1835.76 129.715 1837.4 131.388C1839.08 133.026 1839.91 135.675 1839.91 139.335V156.066ZM1321.89 210.477C1314.12 211.174 1307.67 211.523 1302.54 211.523C1299.13 211.523 1296.62 210.721 1295.02 209.118C1293.41 207.514 1292.61 205.005 1292.61 201.589V184.858C1292.61 181.198 1293.43 178.549 1295.07 176.911C1296.74 175.238 1299.41 174.401 1303.07 174.401H1321.89V181.721H1305.16C1303.07 181.721 1302.02 182.767 1302.02 184.858V201.589C1302.02 202.391 1302.25 203.035 1302.7 203.523C1303.19 203.977 1303.8 204.203 1304.53 204.203C1305.26 204.203 1306.07 204.203 1306.94 204.203C1307.81 204.168 1308.71 204.133 1309.66 204.099C1310.6 204.064 1311.54 204.029 1312.48 203.994C1313.45 203.959 1314.69 203.889 1316.19 203.785C1317.72 203.68 1319.62 203.558 1321.89 203.419V210.477ZM1338.63 200.543H1334.71V211H1325.56V183.29H1334.71V193.485H1338.89L1341.76 187.734C1342.81 185.503 1344.45 183.987 1346.68 183.185C1347.48 182.906 1348.25 182.767 1348.98 182.767C1350.16 182.767 1351.24 182.854 1352.22 183.028L1353.53 183.29V190.348H1351.7C1350.51 190.348 1349.64 190.871 1349.08 191.916L1346.47 197.145L1354.31 211H1344.38L1338.63 200.543ZM1372.33 190.348C1370.48 190.348 1368.39 190.696 1366.06 191.394V203.942H1373.9C1375.29 203.942 1375.99 203.245 1375.99 201.85V192.178C1375.99 191.655 1375.81 191.219 1375.47 190.871C1375.12 190.522 1374.68 190.348 1374.16 190.348H1372.33ZM1366.06 211V219.888H1356.91V183.29H1365.01L1365.53 185.904C1367.17 184.823 1368.84 184.039 1370.55 183.551C1372.29 183.028 1373.76 182.767 1374.94 182.767H1377.3C1379.67 182.767 1381.57 183.481 1382.99 184.91C1384.42 186.34 1385.14 188.239 1385.14 190.609V202.635C1385.14 205.249 1384.39 207.305 1382.89 208.804C1381.43 210.268 1379.39 211 1376.77 211H1366.06ZM1389.84 211V183.29H1398.99V191.916H1409.18C1411.55 191.916 1413.45 192.631 1414.88 194.06C1416.31 195.489 1417.03 197.389 1417.03 199.759V203.157C1417.03 205.528 1416.31 207.427 1414.88 208.856C1413.45 210.285 1411.55 211 1409.18 211H1389.84ZM1406.05 204.465C1406.57 204.465 1407 204.29 1407.35 203.942C1407.7 203.593 1407.88 203.157 1407.88 202.635V200.334C1407.88 199.811 1407.7 199.376 1407.35 199.027C1407 198.678 1406.57 198.504 1406.05 198.504H1398.99V204.465H1406.05ZM1429.57 211H1420.42V183.29H1429.57V211ZM1453.38 193.485V183.29H1462.53V211H1453.38V200.543H1443.97V211H1434.82V183.29H1443.97V193.485H1453.38ZM1486.31 193.485V183.29H1495.46V211H1486.31V200.543H1476.9V211H1467.75V183.29H1476.9V193.485H1486.31ZM1518.72 183.29H1528.4V211H1519.25V195.838L1510.36 211H1500.69V183.29H1509.84V198.452L1518.72 183.29ZM1546.69 200.543H1542.77V211H1533.62V183.29H1542.77V193.485H1546.95L1549.83 187.734C1550.87 185.503 1552.51 183.987 1554.74 183.185C1555.54 182.906 1556.31 182.767 1557.04 182.767C1558.23 182.767 1559.31 182.854 1560.28 183.028L1561.59 183.29V190.348H1559.76C1558.57 190.348 1557.7 190.871 1557.15 191.916L1554.53 197.145L1562.37 211H1552.44L1546.69 200.543ZM1593.2 203.157C1593.2 205.772 1592.45 207.828 1590.95 209.327C1589.49 210.791 1587.45 211.523 1584.84 211.523H1572.81C1570.2 211.523 1568.14 210.791 1566.64 209.327C1565.18 207.828 1564.45 205.772 1564.45 203.157V191.132C1564.45 188.518 1565.18 186.479 1566.64 185.015C1568.14 183.516 1570.2 182.767 1572.81 182.767H1584.84C1587.45 182.767 1589.49 183.516 1590.95 185.015C1592.45 186.479 1593.2 188.518 1593.2 191.132V203.157ZM1584.05 191.916C1584.05 190.522 1583.35 189.825 1581.96 189.825H1575.69C1574.29 189.825 1573.59 190.522 1573.59 191.916V202.373C1573.59 203.767 1574.29 204.465 1575.69 204.465H1581.96C1583.35 204.465 1584.05 203.767 1584.05 202.373V191.916ZM1617.77 211H1597.9V183.29H1616.2C1618.54 183.29 1620.42 183.987 1621.85 185.381C1623.31 186.74 1624.04 188.274 1624.04 189.982C1624.04 191.69 1623.68 193.084 1622.94 194.165C1622.21 195.245 1621.18 195.977 1619.86 196.361C1621.43 196.639 1622.77 197.406 1623.89 198.661C1625.04 199.916 1625.61 201.589 1625.61 203.68C1625.61 205.772 1624.88 207.514 1623.41 208.909C1621.99 210.303 1620.1 211 1617.77 211ZM1616.46 202.112C1616.46 201.589 1616.29 201.153 1615.94 200.805C1615.59 200.456 1615.15 200.282 1614.63 200.282H1607.05V204.726H1614.63C1615.15 204.726 1615.59 204.552 1615.94 204.203C1616.29 203.855 1616.46 203.419 1616.46 202.896V202.112ZM1614.89 191.394C1614.89 190.871 1614.72 190.435 1614.37 190.087C1614.02 189.738 1613.59 189.564 1613.06 189.564H1607.05V194.269H1613.06C1613.59 194.269 1614.02 194.095 1614.37 193.746C1614.72 193.398 1614.89 192.962 1614.89 192.439V191.394ZM1640.23 204.203C1642.08 204.203 1644.17 203.855 1646.5 203.157V200.02H1638.92C1638.4 200.02 1637.96 200.195 1637.62 200.543C1637.27 200.892 1637.09 201.328 1637.09 201.85V202.373C1637.09 202.896 1637.27 203.332 1637.62 203.68C1637.96 204.029 1638.4 204.203 1638.92 204.203H1640.23ZM1630.56 183.812C1636.94 183.115 1642.69 182.767 1647.81 182.767C1650.18 182.767 1652.08 183.481 1653.51 184.91C1654.94 186.34 1655.65 188.239 1655.65 190.609V211H1647.55L1647.03 208.386C1645.39 209.466 1643.7 210.268 1641.96 210.791C1640.25 211.279 1638.8 211.523 1637.62 211.523H1635.79C1633.42 211.523 1631.52 210.808 1630.09 209.379C1628.66 207.95 1627.94 206.05 1627.94 203.68V201.328C1627.94 198.957 1628.66 197.058 1630.09 195.629C1631.52 194.2 1633.42 193.485 1635.79 193.485H1646.5V191.394C1646.5 190.871 1646.33 190.435 1645.98 190.087C1645.63 189.738 1645.2 189.564 1644.67 189.564C1642.41 189.564 1639.9 189.668 1637.15 189.877C1634.43 190.087 1632.23 190.243 1630.56 190.348V183.812ZM1681.77 174.401H1709.22V203.68H1713.14V217.797H1704.25L1703.73 211H1683.34L1682.82 217.797H1673.93V203.68H1677.33C1678.34 202.53 1679.09 201.24 1679.58 199.811C1680.1 198.347 1680.39 197.023 1680.46 195.838L1681.77 174.401ZM1699.81 203.68V181.721H1690.14L1689.35 194.792C1689.25 196.918 1688.72 199.062 1687.78 201.223C1687.4 202.129 1686.96 202.948 1686.48 203.68H1699.81ZM1727.79 204.203C1729.64 204.203 1731.73 203.855 1734.07 203.157V200.02H1726.49C1725.96 200.02 1725.53 200.195 1725.18 200.543C1724.83 200.892 1724.66 201.328 1724.66 201.85V202.373C1724.66 202.896 1724.83 203.332 1725.18 203.68C1725.53 204.029 1725.96 204.203 1726.49 204.203H1727.79ZM1718.12 183.812C1724.5 183.115 1730.25 182.767 1735.38 182.767C1737.75 182.767 1739.65 183.481 1741.07 184.91C1742.5 186.34 1743.22 188.239 1743.22 190.609V211H1735.11L1734.59 208.386C1732.95 209.466 1731.26 210.268 1729.52 210.791C1727.81 211.279 1726.37 211.523 1725.18 211.523H1723.35C1720.98 211.523 1719.08 210.808 1717.65 209.379C1716.22 207.95 1715.51 206.05 1715.51 203.68V201.328C1715.51 198.957 1716.22 197.058 1717.65 195.629C1719.08 194.2 1720.98 193.485 1723.35 193.485H1734.07V191.394C1734.07 190.871 1733.89 190.435 1733.55 190.087C1733.2 189.738 1732.76 189.564 1732.24 189.564C1729.97 189.564 1727.46 189.668 1724.71 189.877C1721.99 190.087 1719.8 190.243 1718.12 190.348V183.812ZM1763.33 190.348C1761.49 190.348 1759.39 190.696 1757.06 191.394V203.942H1764.9C1766.3 203.942 1766.99 203.245 1766.99 201.85V192.178C1766.99 191.655 1766.82 191.219 1766.47 190.871C1766.12 190.522 1765.69 190.348 1765.16 190.348H1763.33ZM1757.06 211V219.888H1747.91V183.29H1756.01L1756.54 185.904C1758.17 184.823 1759.85 184.039 1761.56 183.551C1763.3 183.028 1764.76 182.767 1765.95 182.767H1768.3C1770.67 182.767 1772.57 183.481 1774 184.91C1775.43 186.34 1776.14 188.239 1776.14 190.609V202.635C1776.14 205.249 1775.39 207.305 1773.89 208.804C1772.43 210.268 1770.39 211 1767.78 211H1757.06ZM1780.84 211V183.29H1789.99V191.916H1800.71C1803.08 191.916 1804.98 192.631 1806.41 194.06C1807.84 195.489 1808.55 197.389 1808.55 199.759V203.157C1808.55 205.528 1807.84 207.427 1806.41 208.856C1804.98 210.285 1803.08 211 1800.71 211H1780.84ZM1797.57 204.465C1798.1 204.465 1798.53 204.29 1798.88 203.942C1799.23 203.593 1799.4 203.157 1799.4 202.635V200.282C1799.4 199.759 1799.23 199.323 1798.88 198.975C1798.53 198.626 1798.1 198.452 1797.57 198.452H1789.99V204.465H1797.57ZM1839.38 183.29V211H1830.23V202.373H1825.79L1820.82 211H1811.15L1816.37 201.85C1814.91 201.328 1813.76 200.439 1812.92 199.184C1812.09 197.929 1811.67 196.378 1811.67 194.531V191.132C1811.67 188.762 1812.38 186.862 1813.81 185.433C1815.24 184.004 1817.14 183.29 1819.51 183.29H1839.38ZM1822.65 189.825C1822.13 189.825 1821.69 189.999 1821.34 190.348C1820.99 190.696 1820.82 191.132 1820.82 191.655V194.008C1820.82 194.531 1820.99 194.966 1821.34 195.315C1821.69 195.663 1822.13 195.838 1822.65 195.838H1830.23V189.825H1822.65Z" fill="#FF49F8"/>
</svg>
