<svg width="1261" height="13" viewBox="0 0 1261 13" fill="none" xmlns="http://www.w3.org/2000/svg">
<path d="M717.92 0.077896C718.1 0.0261871 718.286 -5.10992e-05 718.473 -5.10992e-05H823.813C826.13 -5.10992e-05 826.593 3.28143 824.366 3.922L793.08 12.922C792.9 12.9737 792.714 12.9999 792.527 12.9999H687.187C684.87 12.9999 684.407 9.71847 686.634 9.0779L717.92 0.077896Z" fill="#FF49F8"/>
<path d="M1221.88 0.0780842C1222.06 0.0262844 1222.24 1.37445e-06 1222.43 4.0831e-06L1261 0.000562091V13H1191.17C1188.86 13 1188.39 9.71912 1190.62 9.07808L1221.88 0.0780842Z" fill="#FF49F8"/>
<path d="M1053.92 0.077896C1054.1 0.0261871 1054.29 -5.10992e-05 1054.47 -5.10992e-05H1159.81C1162.13 -5.10992e-05 1162.59 3.28143 1160.37 3.922L1129.08 12.922C1128.9 12.9737 1128.71 12.9999 1128.53 12.9999H1023.19C1020.87 12.9999 1020.41 9.71847 1022.63 9.0779L1053.92 0.077896Z" fill="#FF49F8"/>
<path d="M885.92 0.077896C886.1 0.0261871 886.286 -5.10992e-05 886.473 -5.10992e-05H991.813C994.13 -5.10992e-05 994.593 3.28143 992.366 3.922L961.08 12.922C960.9 12.9737 960.714 12.9999 960.527 12.9999H855.187C852.87 12.9999 852.407 9.71847 854.634 9.0779L885.92 0.077896Z" fill="#FF49F8"/>
<path d="M44.9201 0.077896C45.0999 0.0261871 45.286 -5.10992e-05 45.473 -5.10992e-05H150.813C153.13 -5.10992e-05 153.593 3.28143 151.366 3.922L120.08 12.922C119.9 12.9737 119.714 12.9999 119.527 12.9999H14.1869C11.8698 12.9999 11.4072 9.71847 13.634 9.0779L44.9201 0.077896Z" fill="#FF49F8"/>
<path d="M548.92 0.077896C549.1 0.0261871 549.286 -5.10992e-05 549.473 -5.10992e-05H654.813C657.13 -5.10992e-05 657.593 3.28143 655.366 3.922L624.08 12.922C623.9 12.9737 623.714 12.9999 623.527 12.9999H518.187C515.87 12.9999 515.407 9.71847 517.634 9.0779L548.92 0.077896Z" fill="#FF49F8"/>
<path d="M380.92 0.077896C381.1 0.0261871 381.286 -5.10992e-05 381.473 -5.10992e-05H486.813C489.13 -5.10992e-05 489.593 3.28143 487.366 3.922L456.08 12.922C455.9 12.9737 455.714 12.9999 455.527 12.9999H350.187C347.87 12.9999 347.407 9.71847 349.634 9.0779L380.92 0.077896Z" fill="#FF49F8"/>
<path d="M212.92 0.077896C213.1 0.0261871 213.286 -5.10992e-05 213.473 -5.10992e-05H318.813C321.13 -5.10992e-05 321.593 3.28143 319.366 3.922L288.08 12.922C287.9 12.9737 287.714 12.9999 287.527 12.9999H182.187C179.87 12.9999 179.407 9.71847 181.634 9.0779L212.92 0.077896Z" fill="#FF49F8"/>
</svg>
