<svg width="1920" height="1618" viewBox="0 0 1920 1618" fill="none" xmlns="http://www.w3.org/2000/svg">
<path fill-rule="evenodd" clip-rule="evenodd" d="M1920 0H0V968H269.683L296.612 1000H-153L30.7853 1312.68C91.379 1415.77 189.621 1415.77 250.215 1312.68L377.502 1096.12L411.709 1136.77C459.09 1193.08 535.91 1193.08 583.291 1136.77L685.966 1014.76L718.18 1046.87C749.561 1078.15 800.439 1078.15 831.82 1046.87L927 952H822.075L891 928L966.125 968H1145.25H1403.5H1920V0Z" fill="black"/>
<path fill-rule="evenodd" clip-rule="evenodd" d="M1042 957H857L914.922 1014.73C934.019 1033.76 964.981 1033.76 984.078 1014.73L1042 957Z" fill="black"/>
<path fill-rule="evenodd" clip-rule="evenodd" d="M2089 866H1162L1430.95 1359.08C1519.62 1521.64 1795.83 1579.07 1884.5 1416.5H1931L2089 866Z" fill="black"/>
<path d="M0 898H1011L977 992H505.5H377L0 1120V898Z" fill="black"/>
<path d="M2090.43 1393.05C2101.34 1376.88 2094.63 1363 2075.89 1363H1118.06C1109.95 1363 1100.59 1365.67 1091.89 1370.47L712.281 1579.99C687.974 1593.41 685.053 1617.46 707.73 1617.46H1909.55C1926.18 1617.46 1946.4 1606.43 1956.09 1592.08L2090.43 1393.05Z" fill="black"/>
<path d="M1218.77 1483.47C1203.3 1495.38 1186.99 1506.23 1169.84 1516.03C1153.1 1525.69 1135.7 1534.08 1117.63 1541.21C1099.77 1548.33 1081.51 1553.83 1062.84 1557.71C1044.38 1561.59 1025.91 1563.63 1007.41 1563.83C988.904 1564.03 975.166 1562.34 966.191 1558.76C957.616 1555.03 953.335 1549.78 953.352 1542.99C953.769 1536.05 958.083 1527.73 966.296 1518.03C974.72 1508.32 986.67 1497.51 1002.14 1485.61C1022.84 1469.69 1044.66 1455.8 1067.6 1443.96C1090.76 1432.11 1114.5 1422.87 1138.84 1416.24C1163.58 1409.47 1188.39 1405.95 1213.27 1405.68C1237.94 1405.41 1253.96 1408.49 1261.33 1414.92C1268.89 1421.2 1268.76 1430.25 1260.94 1442.07C1253.52 1453.75 1239.46 1467.55 1218.77 1483.47ZM1052.58 1485.27C1038.6 1496.03 1028.59 1505.26 1022.57 1512.96C1016.54 1520.66 1015.08 1526.55 1018.18 1530.62C1021.28 1534.68 1029.52 1536.65 1042.92 1536.5C1056.74 1536.35 1070.51 1534.15 1084.2 1529.9C1098.12 1525.65 1112.02 1519.63 1125.92 1511.84C1140.02 1504.05 1154.07 1494.78 1168.05 1484.02C1189.12 1467.81 1201.15 1455.17 1204.16 1446.08C1207.15 1437 1198.45 1432.57 1178.03 1432.79C1164.42 1432.94 1150.66 1435.14 1136.75 1439.39C1122.84 1443.64 1108.83 1449.66 1094.72 1457.45C1080.61 1465.24 1066.56 1474.51 1052.58 1485.27Z" fill="white"/>
<path d="M1343.66 1558.06L1288.47 1558.66L1311.03 1501.14L1182.57 1559.81L1130.89 1560.37L1309.4 1480.37L1335.35 1406.69L1388.62 1406.11L1365.87 1460.88L1484.57 1405.06L1537.82 1403.31L1367.46 1481.44L1343.66 1558.06Z" fill="white"/>
<path d="M1530.85 1557.63L1562.79 1526.87L1610.32 1526.36L1578.38 1557.11L1530.85 1557.63ZM1580.15 1509.87L1629.26 1456.57L1675.2 1456.08L1626.08 1509.38L1580.15 1509.87Z" fill="#D3FF8C"/>
<path d="M1605.85 1557.63L1637.79 1526.87L1685.32 1526.36L1653.38 1557.11L1605.85 1557.63ZM1655.15 1509.87L1753.38 1403.28L1799.31 1402.78L1701.08 1509.38L1655.15 1509.87Z" fill="white"/>
<path d="M1453 1557.85L1484.94 1527.09L1532.46 1526.58L1500.53 1557.34L1453 1557.85ZM1502.3 1510.1L1600.52 1403.5L1646.46 1403L1548.23 1509.6L1502.3 1510.1Z" fill="#FF49F8"/>
<path fill-rule="evenodd" clip-rule="evenodd" d="M222.144 888H68L116.261 936.105C132.173 951.965 157.971 951.965 173.882 936.105L222.144 888Z" fill="#D3FF8C"/>
<path fill-rule="evenodd" clip-rule="evenodd" d="M575.039 888H462L497.392 923.277C509.06 934.908 527.979 934.908 539.647 923.277L575.039 888Z" fill="#D3FF8C"/>
<path fill-rule="evenodd" clip-rule="evenodd" d="M822.247 888H746L769.872 911.795C777.743 919.64 790.504 919.64 798.375 911.795L822.247 888Z" fill="#D3FF8C"/>
</svg>
