<svg width="977" height="360" viewBox="0 0 977 360" fill="none" xmlns="http://www.w3.org/2000/svg">
<path d="M168.881 212.532C182.255 211.455 195.318 210.916 208.069 210.916C220.743 210.916 232.775 211.556 244.166 212.835C255.635 214.115 265.996 216.236 275.248 219.199C288.156 223.912 296.242 229.905 299.508 237.178C302.851 244.45 303.123 250.914 300.324 256.571H223.464C225.097 253.743 222.24 251.621 214.892 250.207C207.583 248.726 198.175 247.985 186.667 247.985C175.082 247.985 165.713 248.457 158.559 249.399C151.484 250.342 147.169 252.16 145.613 254.854C144.058 257.547 146.469 259.096 152.845 259.5C166.568 260.779 180.816 261.89 195.59 262.833C217.477 264.112 237.071 265.863 254.372 268.085C265.102 269.567 273.441 271.755 279.389 274.651C285.415 277.546 288.797 281.654 289.536 286.973C290.274 292.293 288.078 299.397 282.946 308.285C279.447 314.346 274.976 319.733 269.534 324.446C264.13 329.092 258.201 333.166 251.747 336.668C245.294 340.169 238.704 343.166 231.978 345.657C225.292 348.081 218.838 350.101 212.618 351.718C198.35 355.286 183.441 357.542 167.89 358.485C152.378 359.495 138.518 360 126.311 360C118.613 360 109.827 359.798 99.9525 359.394C90.0778 358.99 80.2808 357.98 70.5616 356.364C60.9201 354.748 52.27 352.223 44.6113 348.788C36.9914 345.287 31.3931 340.506 27.8164 334.446C25.7171 331.079 24.5897 327.51 24.4342 323.739C24.3175 319.901 26.0087 314.952 29.5076 308.891H106.367C103.335 314.144 105.454 317.814 112.724 319.901C120.032 321.921 131.696 322.931 147.713 322.931C159.298 322.931 168.687 322.493 175.879 321.618C183.071 320.743 188.495 319.564 192.149 318.083C195.804 316.601 198.117 315.019 199.089 313.336C200.721 310.507 198.836 308.521 193.432 307.376C188.145 306.164 177.045 305.053 160.134 304.043C159.706 303.976 159.259 303.942 158.793 303.942C138.888 302.595 121.49 301.215 106.6 299.801C91.7495 298.32 80.8057 296.4 73.7689 294.044C55.4968 287.175 53.0864 274.247 66.5378 255.258C73.5746 245.763 82.8467 237.986 94.3543 231.925C105.862 225.865 117.622 221.455 129.635 218.694C142.387 215.731 155.469 213.677 168.881 212.532Z" fill="#2630F7"/>
<path d="M365.696 314.245H529.795L506.177 355.152H276.881L357.356 215.765L584.786 215.765L561.227 256.571H398.994L391.413 269.701L544.782 269.701L527.054 300.407H373.685L365.696 314.245Z" fill="#2630F7"/>
<path d="M584.436 258.389L609.045 215.765H851.987L827.378 258.389H738.506L682.639 355.152H617.443L673.309 258.389H584.436Z" fill="#2630F7"/>
<path d="M475.893 74.4727C470.452 83.8975 464.549 92.1863 458.184 99.339C447.447 111.372 433.917 121.176 417.592 128.749C397.236 138.258 373.065 143.013 345.081 143.013H219.442L188.944 186.31H107.469L217.037 6.0588L424.151 6.0588C452.136 6.0588 470.816 10.8133 480.193 20.3222C487.772 27.8957 489.982 37.6992 486.825 49.7326C484.93 56.8854 481.286 65.132 475.893 74.4727ZM250.196 89.7459L357.032 89.7459C369.664 89.7459 379.041 87.8946 385.163 84.192C388.806 81.92 391.843 78.6802 394.272 74.4727C396.653 70.3493 397.333 67.1516 396.313 64.8796C394.466 61.177 387.227 59.3257 374.596 59.3257L267.759 59.3257L250.196 89.7459Z" fill="#2630F7"/>
<path d="M546.223 6.0588L614.314 6.0588L495.746 198.249H427.655L546.223 6.0588Z" fill="#2630F7"/>
<path d="M891.607 5.42767C904.967 8.03632 916.166 12.37 925.202 18.4288C933.219 24.4035 938.102 31.6824 939.851 40.2657C941.6 48.849 940.919 56.9274 937.81 64.5009H841.759C840.982 59.6202 833.719 56.128 819.969 54.0243C810.398 52.4254 798.908 51.626 785.499 51.626C753.337 51.626 729.263 55.0341 713.279 61.8502C707.741 64.3747 702.785 67.4882 698.412 71.1908C690.833 77.5862 684.663 84.9073 679.902 93.154C678.104 96.2675 676.452 99.8018 674.946 103.757C673.586 107.628 672.954 111.415 673.052 115.117C673.197 118.736 674.558 121.849 677.133 124.458C680.922 127.655 686.874 129.97 694.987 131.4C703.198 132.831 711.482 133.714 719.838 134.051C728.194 134.387 734.122 134.556 737.62 134.556C776.098 134.556 802.868 129.675 817.929 119.914L765.167 119.914L787.321 81.5413L929.138 81.5413L872.149 180.249H819.97L822.885 159.548C800.73 170.151 777.823 177.598 754.163 181.89C737.693 184.835 722.219 186.308 707.741 186.308C698.024 186.308 686.218 186.056 672.323 185.551C638.46 184.288 613.585 178.398 597.698 167.879C575.203 151.638 573.649 126.73 593.034 93.154C612.419 59.5782 642.735 34.6698 683.983 18.4288C712.016 7.9101 743.693 2.0196 779.013 0.75735C793.491 0.25245 805.589 0 815.305 0C824.925 0 836.682 0.25245 850.577 0.75735C864.472 1.26225 878.149 2.81902 891.607 5.42767Z" fill="#2630F7"/>
</svg>
