<svg width="977" height="396" viewBox="0 0 977 396" fill="none" xmlns="http://www.w3.org/2000/svg">
<path d="M134 0H976V198L830 396H0V198L134 0Z" fill="black"/>
<path d="M168.881 228.532C182.255 227.455 195.318 226.916 208.069 226.916C220.743 226.916 232.775 227.556 244.166 228.835C255.635 230.115 265.996 232.236 275.248 235.199C288.156 239.912 296.242 245.905 299.508 253.178C302.851 260.45 303.123 266.914 300.324 272.571H223.464C225.097 269.743 222.24 267.621 214.892 266.207C207.583 264.726 198.175 263.985 186.667 263.985C175.082 263.985 165.713 264.457 158.559 265.399C151.484 266.342 147.169 268.16 145.613 270.854C144.058 273.547 146.469 275.096 152.845 275.5C166.568 276.779 180.816 277.89 195.59 278.833C217.477 280.112 237.071 281.863 254.372 284.085C265.102 285.567 273.441 287.755 279.389 290.651C285.415 293.546 288.797 297.654 289.536 302.973C290.274 308.293 288.078 315.397 282.946 324.285C279.447 330.346 274.976 335.733 269.534 340.446C264.13 345.092 258.201 349.166 251.747 352.668C245.294 356.169 238.704 359.166 231.978 361.657C225.292 364.081 218.838 366.101 212.618 367.718C198.35 371.286 183.441 373.542 167.89 374.485C152.378 375.495 138.518 376 126.311 376C118.613 376 109.827 375.798 99.9525 375.394C90.0778 374.99 80.2808 373.98 70.5616 372.364C60.9201 370.748 52.27 368.223 44.6113 364.788C36.9914 361.287 31.3931 356.506 27.8164 350.446C25.7171 347.079 24.5897 343.51 24.4342 339.739C24.3175 335.901 26.0087 330.952 29.5076 324.891H106.367C103.335 330.144 105.454 333.814 112.724 335.901C120.032 337.921 131.696 338.931 147.713 338.931C159.298 338.931 168.687 338.493 175.879 337.618C183.071 336.743 188.495 335.564 192.149 334.083C195.804 332.601 198.117 331.019 199.089 329.336C200.721 326.507 198.836 324.521 193.432 323.376C188.145 322.164 177.045 321.053 160.134 320.043C159.706 319.976 159.259 319.942 158.793 319.942C138.888 318.595 121.49 317.215 106.6 315.801C91.7495 314.32 80.8057 312.4 73.7689 310.044C55.4968 303.175 53.0864 290.247 66.5378 271.258C73.5746 261.763 82.8467 253.986 94.3543 247.925C105.862 241.865 117.622 237.455 129.635 234.694C142.387 231.731 155.469 229.677 168.881 228.532Z" fill="white"/>
<path d="M365.696 330.245H529.795L506.177 371.152H276.881L357.356 231.765H584.786L561.227 272.571H398.994L391.413 285.701H544.782L527.054 316.407H373.685L365.696 330.245Z" fill="white"/>
<path d="M584.436 274.389L609.045 231.765L851.987 231.765L827.378 274.389H738.506L682.639 371.152H617.443L673.309 274.389L584.436 274.389Z" fill="white"/>
<path d="M475.893 90.4727C470.452 99.8975 464.549 108.186 458.184 115.339C447.447 127.372 433.917 137.176 417.592 144.749C397.236 154.258 373.065 159.013 345.081 159.013H219.442L188.944 202.31H107.469L217.037 22.0588L424.151 22.0588C452.136 22.0588 470.816 26.8133 480.193 36.3222C487.772 43.8957 489.982 53.6992 486.825 65.7326C484.93 72.8854 481.286 81.132 475.893 90.4727ZM250.196 105.746L357.032 105.746C369.664 105.746 379.041 103.895 385.163 100.192C388.806 97.92 391.843 94.6802 394.272 90.4727C396.653 86.3493 397.333 83.1516 396.313 80.8796C394.466 77.177 387.227 75.3257 374.596 75.3257L267.759 75.3257L250.196 105.746Z" fill="white"/>
<path d="M546.223 22.0588L614.314 22.0588L495.746 214.249H427.655L546.223 22.0588Z" fill="white"/>
<path d="M891.607 21.4277C904.967 24.0363 916.166 28.37 925.202 34.4288C933.219 40.4035 938.102 47.6824 939.851 56.2657C941.6 64.849 940.919 72.9274 937.81 80.5009H841.759C840.982 75.6202 833.719 72.128 819.969 70.0243C810.398 68.4254 798.908 67.626 785.499 67.626C753.337 67.626 729.263 71.0341 713.279 77.8502C707.741 80.3747 702.785 83.4882 698.412 87.1908C690.833 93.5862 684.663 100.907 679.902 109.154C678.104 112.268 676.452 115.802 674.946 119.757C673.586 123.628 672.954 127.415 673.052 131.117C673.197 134.736 674.558 137.849 677.133 140.458C680.922 143.655 686.874 145.97 694.987 147.4C703.198 148.831 711.482 149.714 719.838 150.051C728.194 150.387 734.122 150.556 737.62 150.556C776.098 150.556 802.868 145.675 817.929 135.914L765.167 135.914L787.321 97.5413L929.138 97.5413L872.149 196.249H819.97L822.885 175.548C800.73 186.151 777.823 193.598 754.163 197.89C737.693 200.835 722.219 202.308 707.741 202.308C698.024 202.308 686.218 202.056 672.323 201.551C638.46 200.288 613.585 194.398 597.698 183.879C575.203 167.638 573.649 142.73 593.034 109.154C612.419 75.5782 642.735 50.6698 683.983 34.4288C712.016 23.9101 743.693 18.0196 779.013 16.7573C793.491 16.2525 805.589 16 815.305 16C824.925 16 836.682 16.2525 850.577 16.7573C864.472 17.2622 878.149 18.819 891.607 21.4277Z" fill="white"/>
</svg>
