<svg width="528" height="593" viewBox="0 0 528 593" fill="none" xmlns="http://www.w3.org/2000/svg">
<path d="M528 0H417V445.358L426.569 461L466.098 447.732C503.564 435.157 528 405.482 528 372.561V0Z" fill="white"/>
<path d="M386 0H417V336C399.879 336 386 325.696 386 312.985V0Z" fill="white"/>
<path d="M414.099 295.287H437.494V334.764C424.573 334.764 414.099 323.963 414.099 310.639V295.287Z" fill="#2630F7"/>
<path d="M425.796 304.06C419.336 304.06 414.099 300.378 414.099 295.836C414.099 291.294 419.336 287.611 425.796 287.611C432.256 287.611 437.493 291.294 437.493 295.836C437.493 300.378 432.256 304.06 425.796 304.06Z" fill="#2630F7"/>
<path d="M108.711 479.57C107.549 473.477 113.04 468.271 118.83 469.974L174.92 486.469C180.977 488.25 182.801 496.184 178.166 500.58L133.326 543.104C128.69 547.501 121.176 544.962 119.961 538.589L108.711 479.57Z" fill="#D3FF8C"/>
<path d="M407.462 224.092C407.978 217.906 401.974 213.341 396.396 215.679L342.363 238.329C336.529 240.775 335.546 248.867 340.615 252.72L389.648 289.998C394.718 293.851 401.922 290.49 402.462 284.019L407.462 224.092Z" fill="#D3FF8C"/>
<path d="M400.833 237.272C401.349 231.086 395.345 226.521 389.766 228.859L347.356 246.638C341.521 249.084 340.539 257.175 345.608 261.028L384.095 290.288C389.164 294.142 396.369 290.781 396.909 284.31L400.833 237.272Z" fill="#2630F7"/>
<path d="M280.481 218.356H245.604C156.572 218.356 84.3973 292.787 84.3973 384.601V392.057C84.3973 483.871 156.572 558.301 245.604 558.301H280.481C369.513 558.301 441.688 483.871 441.688 392.057V384.601C441.688 292.787 369.513 218.356 280.481 218.356Z" fill="#D3FF8C"/>
<path d="M379.147 323.63H399.797C404.249 323.63 407.858 327.352 407.858 331.942V364.664C407.858 369.256 404.249 372.976 399.797 372.976H379.147V323.63Z" fill="black"/>
<path d="M347.154 286.403H312.914C290.1 286.403 271.605 305.476 271.605 329.004V421.337C271.605 444.864 290.1 463.937 312.914 463.937H347.154C369.969 463.937 388.464 444.864 388.464 421.337V329.004C388.464 305.476 369.969 286.403 347.154 286.403Z" fill="#2630F7" stroke="#D3FF8C" stroke-width="2"/>
<path d="M322.172 322.533H307.455C303.004 322.533 299.395 326.255 299.395 330.846V419.494C299.395 424.085 303.004 427.807 307.455 427.807H322.172C326.624 427.807 330.233 424.085 330.233 419.494V330.846C330.233 326.255 326.624 322.533 322.172 322.533Z" fill="black"/>
<path d="M361.517 322.533H352.116C347.665 322.533 344.056 326.255 344.056 330.846V419.494C344.056 424.085 347.665 427.807 352.116 427.807H361.517C365.968 427.807 369.577 424.085 369.577 419.494V330.846C369.577 326.255 365.968 322.533 361.517 322.533Z" fill="black"/>
<path d="M153.072 220.608C152.262 214.456 158.042 209.592 163.724 211.645L218.771 231.531C224.714 233.678 226.08 241.711 221.202 245.816L174.002 285.532C169.123 289.638 161.767 286.646 160.92 280.211L153.072 220.608Z" fill="#D3FF8C"/>
<path d="M166.145 236.269C165.056 230.162 170.608 225.025 176.377 226.801L211.917 237.74C217.952 239.597 219.682 247.554 214.995 251.891L186.163 278.57C181.475 282.907 173.991 280.274 172.853 273.886L166.145 236.269Z" fill="#2630F7"/>
<path d="M161.14 532.272C158.841 526.533 163.232 520.315 169.234 520.812L227.373 525.621C233.651 526.14 236.952 533.55 233.245 538.8L197.38 589.58C193.674 594.83 185.821 593.863 183.416 587.86L161.14 532.272Z" fill="#D3FF8C"/>
<path d="M395.137 505.184C397.255 499.308 392.543 493.222 386.518 494.049L325.507 502.432C320.13 503.171 316.981 509.065 319.249 514.147L351.334 586.029C354.333 592.749 363.711 592.385 366.211 585.449L395.137 505.184Z" fill="#D3FF8C"/>
<path d="M248.8 323.63H226.639C222.188 323.63 218.579 327.351 218.579 331.942V364.664C218.579 369.255 222.188 372.977 226.639 372.977H248.8C253.252 372.977 256.86 369.255 256.86 364.664V331.942C256.86 327.351 253.252 323.63 248.8 323.63Z" fill="black"/>
<path d="M0 0H112V443.915L102.345 464L62.2238 446.863C24.5537 430.772 0 392.923 0 350.947V0Z" fill="white"/>
<path d="M142 0H112V348C128.569 348 142 337.795 142 325.205V0Z" fill="white"/>
<path d="M135.047 295.119H111.654V334.596C124.573 334.596 135.047 323.795 135.047 310.47V295.119Z" fill="#2630F7"/>
<path d="M123.35 303.891C129.81 303.891 135.047 300.209 135.047 295.666C135.047 291.124 129.81 287.442 123.35 287.442C116.89 287.442 111.653 291.124 111.653 295.666C111.653 300.209 116.89 303.891 123.35 303.891Z" fill="#2630F7"/>
<path d="M84.0058 460.704C84.0058 460.704 65.9286 447.545 59.0167 390.522" stroke="black" stroke-width="2" stroke-linecap="round"/>
<path d="M86.0161 460.33C86.0161 460.33 67.589 447.698 59.1331 390.896" stroke="black" stroke-width="2" stroke-linecap="round"/>
<path d="M84.0058 460.704C84.0058 460.704 65.9286 447.545 59.0167 390.522" stroke="black" stroke-width="3" stroke-linecap="round"/>
<path d="M58.5578 451.971C58.5578 451.971 41.489 437.451 38.7456 380.054" stroke="black" stroke-width="2" stroke-linecap="round"/>
<path d="M60.5897 451.754C60.5897 451.754 43.1337 437.731 38.8344 380.436" stroke="black" stroke-width="2" stroke-linecap="round"/>
<path d="M35.5141 435.703C35.5141 435.703 18.7366 420.826 17.1312 363.383" stroke="black" stroke-width="2" stroke-linecap="round"/>
<path d="M37.5499 435.528C37.5499 435.528 20.3755 421.14 17.2124 363.766" stroke="black" stroke-width="2" stroke-linecap="round"/>
<path d="M438.807 460.704C438.807 460.704 456.885 447.545 463.796 390.522" stroke="black" stroke-width="2" stroke-linecap="round"/>
<path d="M436.797 460.33C436.797 460.33 455.224 447.698 463.68 390.896" stroke="black" stroke-width="2" stroke-linecap="round"/>
<path d="M438.807 460.704C438.807 460.704 456.885 447.545 463.796 390.522" stroke="black" stroke-width="3" stroke-linecap="round"/>
<path d="M464.255 451.971C464.255 451.971 481.324 437.451 484.067 380.054" stroke="black" stroke-width="2" stroke-linecap="round"/>
<path d="M462.224 451.754C462.224 451.754 479.679 437.731 483.979 380.436" stroke="black" stroke-width="2" stroke-linecap="round"/>
<path d="M487.299 440.703C487.299 440.703 504.076 425.826 505.682 368.383" stroke="black" stroke-width="2" stroke-linecap="round"/>
<path d="M485.263 440.528C485.263 440.528 502.438 426.14 505.6 368.766" stroke="black" stroke-width="2" stroke-linecap="round"/>
</svg>
