<svg width="1128" height="1096" viewBox="0 0 1128 1096" fill="none" xmlns="http://www.w3.org/2000/svg">
<path d="M564 0L607.834 267.718L730.708 24.4829L691.607 292.896L882.602 95.7561L764.041 341.015L1006.19 207.486L818.7 407.797L1090.49 349.747L850.73 487.311L1128 509.897L857.281 572.492L1115.4 673.704L837.772 655.771L1053.81 826.616L793.938 729.744L948.694 955.047L729.673 787.846L809.397 1047.58L650.688 824.908L648.297 1096L564 837.638L479.706 1096L477.311 824.908L318.605 1047.58L398.327 787.846L179.307 955.047L334.061 729.744L74.1922 826.616L290.227 655.771L12.5988 673.704L270.72 572.492L0 509.897L277.271 487.311L37.5149 349.747L309.299 407.797L121.811 207.486L363.958 341.015L245.397 95.7561L436.395 292.896L397.291 24.4829L520.166 267.718L564 0Z" fill="#D3FF8C"/>
<path d="M810.7 552.124C810.7 684.301 700.733 791.451 565.077 791.451C429.422 791.451 319.455 684.301 319.455 552.124C319.455 419.951 429.422 312.8 565.077 312.8C700.733 312.8 810.7 419.951 810.7 552.124Z" fill="white"/>
</svg>
