<svg width="1340" height="137" viewBox="0 0 1340 137" fill="none" xmlns="http://www.w3.org/2000/svg">
<path d="M93.9384 6.3744C99.195 2.87002 105.371 1 111.689 1H1199L1112.35 70.4783L1199 137H111.689C105.371 137 99.195 135.13 93.9384 131.626L0 69L93.9384 6.3744Z" fill="black"/>
<path d="M158.696 85.8132H145.063V56.225H158.441C164.134 56.225 167.682 59.0842 167.682 63.6029C167.682 66.8706 165.232 69.5767 162.015 70.0362V70.1894C166.1 70.4957 169.163 73.4061 169.163 77.3376C169.163 82.5455 165.129 85.8132 158.696 85.8132ZM151.446 60.9478V68.5045H156.169C159.513 68.5045 161.428 67.0748 161.428 64.624C161.428 62.3009 159.743 60.9478 156.781 60.9478H151.446ZM151.446 81.0903H157.037C160.662 81.0903 162.628 79.6096 162.628 76.827C162.628 74.1209 160.611 72.6657 156.883 72.6657H151.446V81.0903ZM193.824 80.5542V85.8132H173.758V56.225H193.824V61.484H180.141V68.4279H193.058V73.304H180.141V80.5542H193.824ZM213.073 85.8132H206.716V61.484H197.858V56.225H221.932V61.484H213.073V85.8132ZM246.516 80.5542V85.8132H226.45V56.225H246.516V61.484H232.833V68.4279H245.75V73.304H232.833V80.5542H246.516ZM252.184 56.225H264.821C271.05 56.225 275.313 60.2841 275.313 66.4111C275.313 72.5381 270.897 76.5972 264.489 76.5972H258.566V85.8132H252.184V56.225ZM258.566 61.2797V71.619H263.11C266.735 71.619 268.854 69.7809 268.854 66.4366C268.854 63.1178 266.735 61.2797 263.136 61.2797H258.566ZM316.747 85.8132H310.39V61.484H297.115V85.8132H290.733V56.225H316.747V85.8132ZM342.965 80.5542V85.8132H322.9V56.225H342.965V61.484H329.282V68.4279H342.2V73.304H329.282V80.5542H342.965ZM348.633 56.225H361.27C367.499 56.225 371.762 60.2841 371.762 66.4111C371.762 72.5381 367.346 76.5972 360.938 76.5972H355.015V85.8132H348.633V56.225ZM355.015 61.2797V71.619H359.559C363.185 71.619 365.303 69.7809 365.303 66.4366C365.303 63.1178 363.185 61.2797 359.585 61.2797H355.015ZM396.781 80.5542V85.8132H376.715V56.225H396.781V61.484H383.097V68.4279H396.015V73.304H383.097V80.5542H396.781ZM434.513 85.8132H428.845V66.0792H428.692L420.472 85.5324H416.489L408.295 66.0792H408.116V85.8132H402.448V56.225H409.826L418.404 76.9036H418.557L427.135 56.225H434.513V85.8132ZM460.757 80.5542V85.8132H440.691V56.225H460.757V61.484H447.073V68.4279H459.991V73.304H447.073V80.5542H460.757ZM492.745 85.8132H486.363V73.4571H472.807V85.8132H466.424V56.225H472.807V68.1726H486.363V56.225H492.745V85.8132ZM509.364 56.225H522.001C528.23 56.225 532.494 60.2841 532.494 66.4111C532.494 72.5381 528.077 76.5972 521.669 76.5972H515.747V85.8132H509.364V56.225ZM515.747 61.2797V71.619H520.291C523.916 71.619 526.035 69.7809 526.035 66.4366C526.035 63.1178 523.916 61.2797 520.316 61.2797H515.747ZM554.755 85.8132L552.458 78.7417H541.837L539.54 85.8132H533.004L543.497 56.225H551.002L561.495 85.8132H554.755ZM547.071 61.9945L543.191 73.9932H551.079L547.199 61.9945H547.071ZM577.68 86.477C568.873 86.477 563.359 80.6053 563.359 71.0319C563.359 61.4584 568.898 55.5612 577.68 55.5612C584.752 55.5612 590.164 59.9777 590.956 66.309H584.701C583.884 63.0668 581.152 60.9734 577.68 60.9734C572.906 60.9734 569.843 64.8283 569.843 71.0063C569.843 77.2354 572.881 81.0648 577.706 81.0648C581.255 81.0648 583.833 79.1757 584.701 76.01H590.981C590.011 82.3923 584.905 86.477 577.68 86.477ZM608.009 85.8132H601.652V61.484H592.794V56.225H616.868V61.484H608.009V85.8132ZM621.386 56.225H634.023C640.252 56.225 644.516 60.2841 644.516 66.4111C644.516 72.5381 640.099 76.5972 633.691 76.5972H627.769V85.8132H621.386V56.225ZM627.769 61.2797V71.619H632.313C635.938 71.619 638.057 69.7809 638.057 66.4366C638.057 63.1178 635.938 61.2797 632.338 61.2797H627.769ZM669.534 80.5542V85.8132H649.468V56.225H669.534V61.484H655.851V68.4279H668.768V73.304H655.851V80.5542H669.534ZM701.216 85.8132H694.859V61.484H681.584V85.8132H675.202V56.225H701.216V85.8132ZM727.077 85.8132L724.779 78.7417H714.159L711.862 85.8132H705.326L715.819 56.225H723.324L733.817 85.8132H727.077ZM719.393 61.9945L715.512 73.9932H723.401L719.52 61.9945H719.393ZM763.175 85.8132H756.793V61.484H748.036L747.296 74.0698C746.862 81.7286 744.36 86.0685 738.31 86.0685C737.289 86.0685 736.421 85.9153 736.012 85.7877V80.2223C736.293 80.2734 736.88 80.3755 737.416 80.3755C740.224 80.3755 741.195 78.0013 741.424 73.6614L742.318 56.225H763.175V85.8132ZM792.457 78.18V63.7816C787.836 63.9858 784.849 66.6919 784.849 70.9808C784.849 75.2952 787.836 77.9758 792.457 78.18ZM806.192 70.9808C806.192 66.6664 803.205 63.9858 798.584 63.7816V78.18C803.205 77.9758 806.192 75.2697 806.192 70.9808ZM792.381 83.2858C783.981 83.0306 778.442 78.5119 778.442 70.9808C778.442 63.4752 783.981 58.931 792.381 58.6758V55.6123H798.661V58.6758C807.06 58.931 812.6 63.4497 812.6 70.9808C812.6 78.4864 807.06 83.005 798.661 83.2858V86.4515H792.381V83.2858ZM840.937 85.8132H834.555V61.484H825.798L825.058 74.0698C824.624 81.7286 822.122 86.0685 816.072 86.0685C815.05 86.0685 814.182 85.9153 813.774 85.7877V80.2223C814.055 80.2734 814.642 80.3755 815.178 80.3755C817.986 80.3755 818.956 78.0013 819.186 73.6614L820.08 56.225H840.937V85.8132ZM866.772 85.8132L864.475 78.7417H853.855L851.557 85.8132H845.022L855.514 56.225H863.02L873.512 85.8132H866.772ZM859.088 61.9945L855.208 73.9932H863.096L859.216 61.9945H859.088ZM905.219 70.266L917.678 85.8132H909.891L899.603 72.921H899.424V85.8132H893.221V72.921H893.042L882.703 85.8132H875.069L887.451 70.3681L875.784 56.225H883.009L893.042 68.6832H893.221V56.225H899.424V68.6832H899.603L909.661 56.225H916.759L905.219 70.266ZM933.659 70.2405L947.138 85.8132H939.199L927.838 72.921H927.685V85.8132H921.303V56.225H927.685V68.6832H927.838L938.994 56.225H946.168L933.659 70.2405ZM970.906 85.8132V66.1047H970.651L956.941 85.8132H950.814V56.225H957.171V75.9845H957.401L971.11 56.225H977.263V85.8132H970.906ZM1008.31 86.0941C1006.24 86.0941 1004.63 84.4857 1004.63 82.4179C1004.63 80.3755 1006.24 78.7417 1008.31 78.7417C1010.35 78.7417 1011.96 80.3755 1011.96 82.4179C1011.96 84.4857 1010.35 86.0941 1008.31 86.0941ZM1008.31 67.662C1006.24 67.662 1004.63 66.0281 1004.63 63.9858C1004.63 61.9435 1006.24 60.3096 1008.31 60.3096C1010.35 60.3096 1011.96 61.9435 1011.96 63.9858C1011.96 66.0281 1010.35 67.662 1008.31 67.662ZM1026.79 71.0319C1026.79 78.3587 1029.44 85.175 1033.25 89.132H1027.56C1023.47 85.2771 1020.43 78.7161 1020.43 71.0319C1020.43 63.3476 1023.37 56.7611 1027.56 52.9317H1033.25C1029.44 56.8887 1026.79 63.6795 1026.79 71.0319Z" fill="white"/>
<path d="M1242.85 5.55283C1248.16 1.93493 1254.44 0 1260.86 0H1340L1253.35 69.4783L1340 136H1260.51C1254.31 136 1248.23 134.195 1243.03 130.804L1149 69.48L1242.85 5.55283Z" fill="black"/>
</svg>
