<svg width="1763" height="136" viewBox="0 0 1763 136" fill="none" xmlns="http://www.w3.org/2000/svg">
<path d="M872.152 5.55283C866.841 1.93493 860.563 0 854.137 0H0L86.6538 69.4783L0 136H854.488C860.695 136 866.768 134.195 871.968 130.804L966 69.48L872.152 5.55283Z" fill="black"/>
<path d="M178.671 27.9267C187.631 27.9267 193.273 33.7984 193.273 43.2186C193.273 52.6644 187.631 58.5106 178.671 58.5106C169.684 58.5106 164.068 52.6644 164.068 43.2186C164.068 33.7984 169.684 27.9267 178.671 27.9267ZM178.671 33.2367C173.743 33.2367 170.552 37.0916 170.552 43.2186C170.552 49.3201 173.718 53.2005 178.671 53.2005C183.598 53.2005 186.763 49.3201 186.763 43.2186C186.763 37.0916 183.598 33.2367 178.671 33.2367ZM206.599 45.4652C206.395 48.784 205.936 51.0561 204.583 52.5623V52.741H216.913V33.6707H207.391L206.599 45.4652ZM201.443 58V63.8462H195.647V52.741H197.766C199.86 51.2858 200.472 49.0137 200.728 44.9801L201.774 28.4117H223.27V52.741H227.074V63.8462H221.279V58H201.443ZM257.505 58H251.122V45.6439H237.566V58H231.184V28.4117H237.566V40.3594H251.122V28.4117H257.505V58ZM283.366 58L281.068 50.9284H270.448L268.15 58H261.615L272.107 28.4117H279.613L290.105 58H283.366ZM275.681 34.1813L271.801 46.18H279.689L275.809 34.1813H275.681ZM324.748 58V38.2915H324.493L310.784 58H304.657V28.4117H311.014V48.1713H311.243L324.953 28.4117H331.105V58H324.748ZM343.768 45.3631V40.4104H347.75C350.788 40.4104 352.856 38.8276 352.856 36.4279C352.856 34.0537 350.941 32.5985 347.827 32.5985C344.712 32.5985 342.644 34.2324 342.491 36.7853H336.619C336.824 31.1689 341.215 27.6458 348.005 27.6458C354.515 27.6458 358.932 30.9136 358.932 35.6875C358.932 39.0318 356.634 41.7379 353.213 42.4272V42.6059C357.323 43.0654 359.902 45.8481 359.902 49.8051C359.902 55.0131 354.873 58.7659 347.878 58.7659C340.934 58.7659 336.211 55.1152 335.93 49.5499H342.032C342.236 52.0517 344.508 53.6345 347.954 53.6345C351.171 53.6345 353.341 51.8985 353.341 49.3711C353.341 46.8693 351.273 45.3631 347.827 45.3631H343.768ZM388.546 58.6638C379.738 58.6638 374.224 52.7921 374.224 43.2186C374.224 33.6452 379.764 27.748 388.546 27.748C395.617 27.748 401.029 32.1645 401.821 38.4957H395.566C394.749 35.2535 392.018 33.1601 388.546 33.1601C383.772 33.1601 380.708 37.015 380.708 43.1931C380.708 49.4222 383.746 53.2516 388.571 53.2516C392.12 53.2516 394.698 51.3624 395.566 48.1968H401.846C400.876 54.5791 395.77 58.6638 388.546 58.6638ZM420.406 58H406.773V28.4117H420.151C425.844 28.4117 429.392 31.271 429.392 35.7896C429.392 39.0574 426.941 41.7635 423.725 42.223V42.3762C427.809 42.6825 430.873 45.5928 430.873 49.5243C430.873 54.7323 426.839 58 420.406 58ZM413.156 33.1346V40.6912H417.879C421.223 40.6912 423.138 39.2616 423.138 36.8108C423.138 34.4877 421.453 33.1346 418.491 33.1346H413.156ZM413.156 53.2771H418.747C422.372 53.2771 424.338 51.7964 424.338 49.0137C424.338 46.3077 422.321 44.8525 418.593 44.8525H413.156V53.2771ZM455.56 58V38.2915H455.304L441.595 58H435.468V28.4117H441.825V48.1713H442.055L455.764 28.4117H461.916V58H455.56ZM494.364 58H487.982V45.6439H474.426V58H468.043V28.4117H474.426V40.3594H487.982V28.4117H494.364V58ZM514.124 27.9267C523.084 27.9267 528.726 33.7984 528.726 43.2186C528.726 52.6644 523.084 58.5106 514.124 58.5106C505.137 58.5106 499.521 52.6644 499.521 43.2186C499.521 33.7984 505.137 27.9267 514.124 27.9267ZM514.124 33.2367C509.196 33.2367 506.005 37.0916 506.005 43.2186C506.005 49.3201 509.171 53.2005 514.124 53.2005C519.051 53.2005 522.216 49.3201 522.216 43.2186C522.216 37.0916 519.051 33.2367 514.124 33.2367ZM546.214 42.4272L559.693 58H551.753L540.393 45.1078H540.24V58H533.858V28.4117H540.24V40.8699H540.393L551.549 28.4117H558.723L546.214 42.4272ZM574.321 47.2778H560.535V41.9166H574.321V47.2778ZM603.144 42.4272L616.623 58H608.683L597.323 45.1078H597.17V58H590.788V28.4117H597.17V40.8699H597.323L608.479 28.4117H615.653L603.144 42.4272ZM632.528 27.9267C641.488 27.9267 647.13 33.7984 647.13 43.2186C647.13 52.6644 641.488 58.5106 632.528 58.5106C623.541 58.5106 617.925 52.6644 617.925 43.2186C617.925 33.7984 623.541 27.9267 632.528 27.9267ZM632.528 33.2367C627.601 33.2367 624.409 37.0916 624.409 43.2186C624.409 49.3201 627.575 53.2005 632.528 53.2005C637.455 53.2005 640.62 49.3201 640.62 43.2186C640.62 37.0916 637.455 33.2367 632.528 33.2367ZM678.276 58H671.919V33.6707H658.644V58H652.262V28.4117H678.276V58ZM704.52 58V38.2915H704.265L690.555 58H684.428V28.4117H690.785V48.1713H691.015L704.724 28.4117H710.877V58H704.52ZM742.277 58H735.895V33.6707H727.139L726.398 46.2566C725.964 53.9153 723.462 58.2553 717.412 58.2553C716.391 58.2553 715.523 58.1021 715.114 57.9745V52.4091C715.395 52.4602 715.982 52.5623 716.519 52.5623C719.327 52.5623 720.297 50.1881 720.527 45.8481L721.42 28.4117H742.277V58ZM762.012 27.9267C770.972 27.9267 776.614 33.7984 776.614 43.2186C776.614 52.6644 770.972 58.5106 762.012 58.5106C753.025 58.5106 747.409 52.6644 747.409 43.2186C747.409 33.7984 753.025 27.9267 762.012 27.9267ZM762.012 33.2367C757.084 33.2367 753.893 37.0916 753.893 43.2186C753.893 49.3201 757.059 53.2005 762.012 53.2005C766.939 53.2005 770.104 49.3201 770.104 43.2186C770.104 37.0916 766.939 33.2367 762.012 33.2367ZM794.102 42.4272L807.581 58H799.641L788.281 45.1078H788.128V58H781.746V28.4117H788.128V40.8699H788.281L799.437 28.4117H806.611L794.102 42.4272ZM191.078 108H184.721V83.6707H171.446V108H165.063V78.4117H191.078V108ZM197.23 78.4117H209.867C216.096 78.4117 220.36 82.4709 220.36 88.5978C220.36 94.7248 215.943 98.784 209.535 98.784H203.613V108H197.23V78.4117ZM203.613 83.4665V93.8058H208.157C211.782 93.8058 213.901 91.9677 213.901 88.6234C213.901 85.3046 211.782 83.4665 208.182 83.4665H203.613ZM238.766 77.9267C247.727 77.9267 253.369 83.7984 253.369 93.2186C253.369 102.664 247.727 108.511 238.766 108.511C229.78 108.511 224.163 102.664 224.163 93.2186C224.163 83.7984 229.78 77.9267 238.766 77.9267ZM238.766 83.2367C233.839 83.2367 230.648 87.0916 230.648 93.2186C230.648 99.3201 233.813 103.201 238.766 103.201C243.693 103.201 246.859 99.3201 246.859 93.2186C246.859 87.0916 243.693 83.2367 238.766 83.2367ZM254.977 108L264.627 93.1165L255.028 78.4117H262.534L268.942 88.9808H269.095L275.554 78.4117H282.676L272.72 93.2186L282.549 108H275.273L268.686 97.7628H268.533L261.87 108H254.977ZM298.811 77.9267C307.771 77.9267 313.413 83.7984 313.413 93.2186C313.413 102.664 307.771 108.511 298.811 108.511C289.824 108.511 284.208 102.664 284.208 93.2186C284.208 83.7984 289.824 77.9267 298.811 77.9267ZM298.811 83.2367C293.884 83.2367 290.692 87.0916 290.692 93.2186C290.692 99.3201 293.858 103.201 298.811 103.201C303.738 103.201 306.903 99.3201 306.903 93.2186C306.903 87.0916 303.738 83.2367 298.811 83.2367ZM326.74 95.4652C326.535 98.784 326.076 101.056 324.723 102.562V102.741H337.053V83.6707H327.531L326.74 95.4652ZM321.583 108V113.846H315.788V102.741H317.906C320 101.286 320.613 99.0137 320.868 94.9801L321.915 78.4117H343.41V102.741H347.214V113.846H341.419V108H321.583ZM371.416 108V88.2915H371.16L357.451 108H351.324V78.4117H357.681V98.1713H357.911L371.62 78.4117H377.772V108H371.416ZM397.481 108H391.124V83.6707H382.265V78.4117H406.339V83.6707H397.481V108ZM421.325 78.4117H433.962C440.191 78.4117 444.454 82.4709 444.454 88.5978C444.454 94.7248 440.038 98.784 433.63 98.784H427.707V108H421.325V78.4117ZM427.707 83.4665V93.8058H432.252C435.877 93.8058 437.996 91.9677 437.996 88.6234C437.996 85.3046 435.877 83.4665 432.277 83.4665H427.707ZM469.473 102.741V108H449.407V78.4117H469.473V83.6707H455.789V90.6147H468.707V95.4907H455.789V102.741H469.473ZM494.849 108L492.551 100.928H481.931L479.634 108H473.098L483.591 78.4117H491.096L501.589 108H494.849ZM487.165 84.1813L483.284 96.18H491.173L487.292 84.1813H487.165ZM528.599 98.6563C528.599 104.273 524.31 108 518.106 108H505.673V78.4117H525.816V83.6707H512.056V89.4914H517.876C524.208 89.4914 528.599 93.142 528.599 98.6563ZM512.056 102.92H516.523C520.021 102.92 522.089 101.439 522.089 98.6308C522.089 95.8226 520.021 94.3164 516.498 94.3164H512.056V102.92ZM553.847 108V88.2915H553.592L539.882 108H533.755V78.4117H540.112V98.1713H540.342L554.051 78.4117H560.204V108H553.847ZM591.604 108H585.222V83.6707H576.466L575.725 96.2566C575.291 103.915 572.789 108.255 566.739 108.255C565.718 108.255 564.85 108.102 564.441 107.974V102.409C564.722 102.46 565.309 102.562 565.846 102.562C568.654 102.562 569.624 100.188 569.854 95.8481L570.747 78.4117H591.604V108ZM617.823 108V88.2915H617.568L603.858 108H597.731V78.4117H604.088V98.1713H604.318L618.027 78.4117H624.18V108H617.823ZM643.888 108H637.531V83.6707H628.673V78.4117H652.747V83.6707H643.888V108ZM673.349 108L671.051 100.928H660.431L658.133 108H651.598L662.09 78.4117H669.596L680.089 108H673.349ZM665.665 84.1813L661.784 96.18H669.673L665.792 84.1813H665.665ZM713.966 113.846H708.196V108H684.173V78.4117H690.555V102.741H703.831V78.4117H710.187V102.741H713.966V113.846ZM738.218 108V88.2915H737.963L724.254 108H718.127V78.4117H724.484V98.1713H724.713L738.423 78.4117H744.575V108H738.218ZM775.695 108.766C767.602 108.766 762.318 103.788 761.475 95.6184H757.084V108H750.702V78.4117H757.084V90.3594H761.526C762.497 82.4709 767.832 77.6458 775.695 77.6458C784.503 77.6458 790.043 83.6197 790.043 93.2186C790.043 102.792 784.528 108.766 775.695 108.766ZM775.695 83.058C770.921 83.058 767.807 86.9895 767.807 93.2186C767.807 99.3967 770.845 103.354 775.695 103.354C780.469 103.354 783.533 99.3967 783.533 93.2186C783.533 86.9895 780.469 83.058 775.695 83.058Z" fill="white"/>
<path d="M1527.15 5.55283C1521.84 1.93493 1515.56 0 1509.14 0H972L1058.65 69.4783L972 136H1509.49C1515.69 136 1521.77 134.195 1526.97 130.804L1621 69.48L1527.15 5.55283Z" fill="#FF49F8"/>
<path d="M1669.15 5.55283C1663.84 1.93493 1657.56 0 1651.14 0H1572L1658.65 69.4783L1572 136H1651.49C1657.69 136 1663.77 134.195 1668.97 130.804L1763 69.48L1669.15 5.55283Z" fill="#FF49F8"/>
<path d="M1149.08 85H1142.72V60.6707H1129.45V85H1123.06V55.4117H1149.08V85ZM1168.84 54.9267C1177.8 54.9267 1183.44 60.7984 1183.44 70.2186C1183.44 79.6644 1177.8 85.5106 1168.84 85.5106C1159.85 85.5106 1154.23 79.6644 1154.23 70.2186C1154.23 60.7984 1159.85 54.9267 1168.84 54.9267ZM1168.84 60.2367C1163.91 60.2367 1160.72 64.0916 1160.72 70.2186C1160.72 76.3201 1163.88 80.2005 1168.84 80.2005C1173.76 80.2005 1176.93 76.3201 1176.93 70.2186C1176.93 64.0916 1173.76 60.2367 1168.84 60.2367ZM1196.77 72.4652C1196.56 75.784 1196.1 78.0561 1194.75 79.5623V79.741H1207.08V60.6707H1197.56L1196.77 72.4652ZM1191.61 85V90.8462H1185.81V79.741H1187.93C1190.03 78.2858 1190.64 76.0137 1190.89 71.9801L1191.94 55.4117H1213.44V79.741H1217.24V90.8462H1211.45V85H1191.61ZM1234.68 85.6638C1225.87 85.6638 1220.36 79.7921 1220.36 70.2186C1220.36 60.6452 1225.89 54.748 1234.68 54.748C1241.75 54.748 1247.16 59.1645 1247.95 65.4957H1241.7C1240.88 62.2535 1238.15 60.1601 1234.68 60.1601C1229.9 60.1601 1226.84 64.015 1226.84 70.1931C1226.84 76.4222 1229.88 80.2516 1234.7 80.2516C1238.25 80.2516 1240.83 78.3624 1241.7 75.1968H1247.98C1247.01 81.5791 1241.9 85.6638 1234.68 85.6638ZM1265.01 85H1258.65V60.6707H1249.79V55.4117H1273.86V60.6707H1265.01V85ZM1278.38 55.4117H1291.02C1297.25 55.4117 1301.51 59.4709 1301.51 65.5978C1301.51 71.7248 1297.1 75.784 1290.69 75.784H1284.77V85H1278.38V55.4117ZM1284.77 60.4665V70.8058H1289.31C1292.93 70.8058 1295.05 68.9677 1295.05 65.6234C1295.05 62.3046 1292.93 60.4665 1289.33 60.4665H1284.77ZM1323.77 85L1321.48 77.9284H1310.86L1308.56 85H1302.02L1312.52 55.4117H1320.02L1330.51 85H1323.77ZM1316.09 61.1813L1312.21 73.18H1320.1L1316.22 61.1813H1316.09ZM1332.4 85L1342.05 70.1165L1332.45 55.4117H1339.96L1346.37 65.9808H1346.52L1352.98 55.4117H1360.1L1350.15 70.2186L1359.97 85H1352.7L1346.11 74.7628H1345.96L1339.3 85H1332.4ZM1368.55 85.2808C1367.25 85.2808 1366.1 85.0511 1365.95 84.9745V79.7921C1366.13 79.8431 1366.69 79.9963 1367.76 79.9963C1369.62 79.9963 1370.98 79.4602 1372.05 77.8774L1362.02 55.4117H1368.76L1375.34 71.6483H1375.6L1381.85 55.4117H1388.57L1379.3 76.5499C1376.67 82.5237 1373.96 85.2808 1368.55 85.2808ZM1412.64 85V65.2915H1412.39L1398.68 85H1392.55V55.4117H1398.91V75.1713H1399.14L1412.84 55.4117H1419V85H1412.64ZM1398.47 47.319H1402.17C1402.22 49.3868 1403.68 50.7144 1405.75 50.7144C1407.84 50.7144 1409.27 49.3868 1409.32 47.319H1413.02C1413.02 51.1994 1410.06 53.7013 1405.75 53.7013C1401.43 53.7013 1398.47 51.1994 1398.47 47.319ZM1455.66 79.741V85H1435.59V55.4117H1455.66V60.6707H1441.97V67.6147H1454.89V72.4907H1441.97V79.741H1455.66ZM1481.39 79.741V85H1461.32V55.4117H1481.39V60.6707H1467.71V67.6147H1480.62V72.4907H1467.71V79.741H1481.39ZM1466.97 53.1396C1465.31 53.1396 1464.03 51.8632 1464.03 50.3059C1464.03 48.7741 1465.31 47.5232 1466.97 47.5232C1468.63 47.5232 1469.9 48.7741 1469.9 50.3059C1469.9 51.8632 1468.63 53.1396 1466.97 53.1396ZM1475.72 53.1396C1474.06 53.1396 1472.81 51.8632 1472.81 50.3059C1472.81 48.7741 1474.06 47.5232 1475.72 47.5232C1477.41 47.5232 1478.66 48.7741 1478.66 50.3059C1478.66 51.8632 1477.41 53.1396 1475.72 53.1396Z" fill="white"/>
</svg>
