<svg width="1604" height="523" viewBox="0 0 1604 523" fill="none" xmlns="http://www.w3.org/2000/svg">
<g clip-path="url(#clip0_36_8)">
<path fill-rule="evenodd" clip-rule="evenodd" d="M1236.81 176.441C1236.82 176.449 1236.82 176.463 1236.81 176.472L1145.12 254.485C1145.11 254.494 1145.09 254.494 1145.08 254.485C1145.07 254.476 1145.06 254.476 1145.05 254.485L1114.41 280.555C1114.4 280.562 1114.4 280.577 1114.41 280.586C1114.42 280.595 1114.42 280.61 1114.41 280.618C1114.4 280.627 1114.4 280.642 1114.41 280.651L1145.05 306.719C1145.06 306.728 1145.07 306.728 1145.08 306.719C1145.09 306.71 1145.11 306.71 1145.12 306.719L1236.81 384.732C1236.82 384.741 1236.82 384.755 1236.81 384.765C1236.8 384.774 1236.8 384.788 1236.81 384.796L1252.13 397.831L1263.39 407.365C1265.81 409.416 1269.73 409.412 1272.14 407.356L1298.44 384.986C1298.44 384.979 1298.44 384.969 1298.44 384.964C1298.43 384.957 1298.43 384.946 1298.44 384.941L1385.69 310.575C1388.11 308.512 1392.03 308.511 1394.45 310.571L1512.6 411.099C1512.61 411.107 1512.61 411.122 1512.6 411.131C1512.59 411.14 1512.59 411.154 1512.6 411.163L1543.24 437.232C1543.25 437.241 1543.27 437.241 1543.28 437.232C1543.29 437.223 1543.31 437.223 1543.32 437.232L1543.43 437.325C1543.5 437.386 1543.62 437.386 1543.69 437.325L1574.21 411.355C1574.22 411.343 1574.22 411.324 1574.21 411.312C1574.2 411.305 1574.2 411.295 1574.2 411.285C1574.2 411.28 1574.2 411.274 1574.21 411.27L1604 386.262V334.414L1547.92 381.487C1545.49 383.524 1541.59 383.51 1539.18 381.458L1425.22 284.328C1422.81 282.27 1422.81 278.936 1425.22 276.876L1538.91 179.982C1541.33 177.917 1545.26 177.917 1547.68 179.982L1604 228.006V174.956L1574.21 149.94C1574.19 149.927 1574.19 149.907 1574.21 149.894C1574.22 149.881 1574.22 149.86 1574.21 149.848L1543.69 123.88C1543.62 123.819 1543.5 123.819 1543.43 123.88L1543.32 123.973C1543.31 123.981 1543.29 123.981 1543.28 123.973C1543.28 123.969 1543.27 123.967 1543.26 123.967C1543.26 123.965 1543.25 123.968 1543.24 123.973L1512.6 150.042C1512.59 150.051 1512.59 150.065 1512.6 150.075C1512.61 150.079 1512.61 150.087 1512.61 150.093C1512.61 150.097 1512.61 150.102 1512.6 150.106L1394.45 250.633C1392.03 252.693 1388.11 252.692 1385.69 250.63L1272.14 153.855C1269.73 151.796 1265.81 151.791 1263.38 153.842L1252.13 163.374L1236.81 176.408C1236.8 176.417 1236.8 176.431 1236.81 176.441ZM1271.29 205.776C1268.86 203.709 1264.92 203.718 1262.5 205.795L1179.96 276.741C1177.56 278.804 1177.57 282.128 1179.98 284.18L1263.12 354.918C1265.54 356.978 1269.47 356.978 1271.89 354.918L1354.85 284.331C1357.27 282.271 1357.27 278.933 1354.85 276.874L1271.29 205.776Z" fill="white"/>
<path d="M1147.21 266.111C1154.46 266.111 1160.34 272.009 1160.34 279.285C1160.34 286.56 1154.46 292.458 1147.21 292.458C1139.97 292.458 1134.09 286.56 1134.09 279.285C1134.09 272.009 1139.97 266.111 1147.21 266.111Z" fill="black"/>
<path d="M1391.36 266.111C1398.61 266.111 1404.48 272.009 1404.48 279.285C1404.48 286.56 1398.61 292.458 1391.36 292.458C1384.11 292.458 1378.23 286.56 1378.23 279.285C1378.23 272.009 1384.11 266.111 1391.36 266.111Z" fill="#2630F7"/>
<path fill-rule="evenodd" clip-rule="evenodd" d="M1027.11 343.313C1035.17 321.528 1039.58 297.958 1039.58 273.356C1039.58 250.256 1035.7 228.066 1028.55 207.408C1030.49 203.919 1034.22 201.559 1038.5 201.559H1040.78C1047.07 201.559 1052.17 206.657 1052.17 212.945V349.576C1052.17 355.865 1046.1 360.962 1039.81 360.962C1033.52 360.962 1027.11 355.865 1027.11 349.576V343.313ZM1084.05 340.468C1116.76 340.468 1143.28 313.959 1143.28 281.261C1143.28 248.562 1116.76 222.054 1084.05 222.054H1065.83V340.468H1084.05Z" fill="url(#paint0_linear_36_8)"/>
<path d="M616.382 465.675C615.71 473.519 623.532 479.307 630.799 476.342L701.191 447.624C708.792 444.523 710.072 434.264 703.468 429.378L639.589 382.114C632.984 377.228 623.599 381.49 622.895 389.693L616.382 465.675Z" fill="#D3FF8C"/>
<path d="M625.018 448.964C624.346 456.808 632.168 462.595 639.434 459.631L694.687 437.09C702.287 433.989 703.568 423.73 696.963 418.844L646.824 381.745C640.22 376.859 630.834 381.121 630.13 389.325L625.018 448.964Z" fill="#2630F7"/>
<path d="M615.487 180.87C616.433 188.686 625.274 192.737 631.779 188.338L689.922 149.015C696.727 144.414 695.88 134.109 688.417 130.688L621.806 100.158C614.342 96.7366 606.03 102.843 607.02 111.017L615.487 180.87Z" fill="#D3FF8C"/>
<path d="M998.141 184.795C997.344 192.627 988.584 196.85 981.995 192.577L923.106 154.388C916.215 149.919 916.863 139.6 924.26 136.035L990.271 104.221C997.666 100.657 1006.1 106.6 1005.26 114.793L998.141 184.795Z" fill="#D3FF8C"/>
<path d="M771.81 461.548H829.565C935.404 461.548 1021.2 375.435 1021.2 269.21C1021.2 162.985 935.404 76.8727 829.565 76.8727H771.81C665.97 76.8727 580.17 162.985 580.17 269.21C580.17 375.435 665.97 461.548 771.81 461.548Z" fill="#D3FF8C"/>
<path d="M949.908 119.144C950.58 126.988 942.758 132.775 935.492 129.809L870.539 103.312C862.939 100.21 861.659 89.952 868.263 85.0659L927.205 41.4553C933.809 36.5678 943.194 40.8296 943.898 49.0342L949.908 119.144Z" fill="#D3FF8C"/>
<path d="M655.554 119.144C654.882 126.988 662.704 132.775 669.971 129.809L734.922 103.312C742.523 100.21 743.803 89.952 737.199 85.0659L678.257 41.4553C671.653 36.5678 662.267 40.8296 661.565 49.0342L655.554 119.144Z" fill="#D3FF8C"/>
<path d="M755.189 434.984C748.194 439.811 749.41 450.51 757.297 453.528L829.61 481.198C836.968 484.014 844.72 477.944 843.825 470.07L835.643 398.142C834.748 390.267 825.845 386.223 819.32 390.726L755.189 434.984Z" fill="#D3FF8C"/>
<path d="M757.073 424.155C750.079 428.982 751.295 439.681 759.182 442.699L811.112 462.57C818.469 465.385 826.221 459.316 825.326 451.442L819.451 399.788C818.556 391.914 809.652 387.87 803.127 392.373L757.073 424.155Z" fill="#2630F7"/>
<path d="M702.242 342.984H714.056C719.855 342.984 724.556 338.265 724.556 332.445V291.606C724.556 285.785 719.855 281.067 714.056 281.067H702.242C696.443 281.067 691.741 285.785 691.741 291.606V332.445C691.741 338.265 696.443 342.984 702.242 342.984Z" fill="black"/>
<path d="M674.677 329.81C674.677 358.912 651.17 382.505 622.173 382.505H591.984C562.987 382.505 539.479 358.912 539.479 329.81V228.372C539.479 199.27 562.987 175.677 591.984 175.677H622.173C651.17 175.677 674.677 199.27 674.677 228.372V329.81Z" fill="#2630F7"/>
<path d="M616.923 345.619H632.674C638.474 345.619 643.175 340.9 643.175 335.08V223.102C643.175 217.282 638.474 212.563 632.674 212.563H616.923C611.124 212.563 606.422 217.282 606.422 223.102V335.08C606.422 340.9 611.124 345.619 616.923 345.619Z" fill="black"/>
<path d="M570.982 345.619H580.17C585.97 345.619 590.671 340.9 590.671 335.08V223.102C590.671 217.282 585.97 212.563 580.17 212.563H570.982C565.183 212.563 560.481 217.282 560.481 223.102V335.08C560.481 340.9 565.183 345.619 570.982 345.619Z" fill="black"/>
<path fill-rule="evenodd" clip-rule="evenodd" d="M323.875 176.441C323.866 176.449 323.866 176.463 323.875 176.472L404.747 254.485C404.757 254.494 404.772 254.494 404.782 254.485C404.791 254.476 404.805 254.476 404.814 254.485L431.84 280.555C431.849 280.562 431.849 280.577 431.84 280.586C431.83 280.595 431.83 280.61 431.84 280.618C431.849 280.627 431.849 280.642 431.84 280.651L404.814 306.719C404.805 306.728 404.791 306.728 404.782 306.719C404.772 306.71 404.757 306.71 404.747 306.719L323.875 384.732C323.866 384.741 323.866 384.755 323.875 384.765C323.885 384.774 323.885 384.788 323.875 384.796L310.363 397.831L300.431 407.365C298.295 409.416 294.841 409.412 292.71 407.356L269.517 384.986C269.517 384.979 269.517 384.969 269.517 384.964C269.53 384.957 269.53 384.946 269.517 384.941L192.559 310.575C190.432 308.512 186.967 308.511 184.828 310.571L80.6201 411.099C80.6069 411.107 80.6069 411.122 80.6201 411.131C80.6201 411.14 80.6201 411.154 80.6201 411.163L53.5934 437.232C53.5803 437.241 53.5673 437.241 53.5542 437.232C53.5411 437.223 53.5279 437.223 53.5279 437.232L53.4228 437.325C53.3572 437.386 53.2654 437.386 53.1998 437.325L26.2783 411.355C26.2652 411.343 26.2652 411.324 26.2783 411.312C26.2783 411.305 26.2914 411.295 26.2914 411.285C26.2783 411.28 26.2783 411.274 26.2783 411.27L-3.05176e-05 386.262V334.414L49.4589 381.487C51.5984 383.524 55.0506 383.51 57.177 381.458L157.683 284.328C159.822 282.27 159.822 278.936 157.683 276.876L57.4132 179.982C55.2736 177.917 51.8083 177.917 49.6819 179.982L-3.05176e-05 228.006V174.956L26.2783 149.94C26.2914 149.927 26.2914 149.907 26.2783 149.894C26.2652 149.881 26.2652 149.86 26.2783 149.848L53.1998 123.88C53.2654 123.819 53.3572 123.819 53.4228 123.88L53.5279 123.973C53.5279 123.981 53.5411 123.981 53.5542 123.973C53.5673 123.969 53.5674 123.967 53.5674 123.967C53.5805 123.965 53.5803 123.968 53.5934 123.973L80.6201 150.042C80.6201 150.051 80.6201 150.065 80.6201 150.075C80.6069 150.079 80.6069 150.087 80.6069 150.093C80.6069 150.097 80.6069 150.102 80.6201 150.106L184.828 250.633C186.967 252.693 190.432 252.692 192.559 250.63L292.71 153.855C294.841 151.796 298.297 151.791 300.435 153.842L310.363 163.374L323.875 176.408C323.885 176.417 323.885 176.431 323.875 176.441ZM293.464 205.776C295.606 203.709 299.083 203.718 301.215 205.795L374.018 276.741C376.134 278.804 376.125 282.128 373.998 284.18L300.666 354.918C298.532 356.978 295.07 356.978 292.935 354.918L219.756 284.331C217.629 282.271 217.629 278.933 219.756 276.874L293.464 205.776Z" fill="white"/>
<path d="M400.344 266.111C393.094 266.111 387.218 272.009 387.218 279.285C387.218 286.56 393.094 292.458 400.344 292.458C407.593 292.458 413.47 286.56 413.47 279.285C413.47 272.009 407.593 266.111 400.344 266.111Z" fill="black"/>
<path d="M189.015 266.111C181.765 266.111 175.889 272.009 175.889 279.285C175.889 286.56 181.765 292.458 189.015 292.458C196.264 292.458 202.141 286.56 202.141 279.285C202.141 272.009 196.264 266.111 189.015 266.111Z" fill="#2630F7"/>
<path fill-rule="evenodd" clip-rule="evenodd" d="M402.969 281.261C402.969 313.959 429.483 340.468 462.191 340.468H480.412V222.054H462.191C429.483 222.054 402.969 248.562 402.969 281.261Z" fill="url(#paint1_linear_36_8)"/>
<path d="M519.134 349.576C519.134 355.865 514.035 360.962 507.746 360.962H505.467C499.177 360.962 494.079 355.865 494.079 349.576V212.945C494.079 206.657 499.177 201.559 505.467 201.559H507.746C514.035 201.559 519.134 206.657 519.134 212.945V349.576Z" fill="url(#paint2_linear_36_8)"/>
</g>
<defs>
<linearGradient id="paint0_linear_36_8" x1="1085.19" y1="360.962" x2="1085.19" y2="201.559" gradientUnits="userSpaceOnUse">
<stop stop-color="#FF49F8"/>
<stop offset="1" stop-color="#FF7FFA"/>
</linearGradient>
<linearGradient id="paint1_linear_36_8" x1="480.412" y1="360.962" x2="480.412" y2="201.559" gradientUnits="userSpaceOnUse">
<stop stop-color="#FF49F8"/>
<stop offset="1" stop-color="#FF7FFA"/>
</linearGradient>
<linearGradient id="paint2_linear_36_8" x1="480.412" y1="360.962" x2="480.412" y2="201.559" gradientUnits="userSpaceOnUse">
<stop stop-color="#FF49F8"/>
<stop offset="1" stop-color="#FF7FFA"/>
</linearGradient>
<clipPath id="clip0_36_8">
<rect width="1604" height="523" fill="white" transform="matrix(-1 0 0 -1 1604 523)"/>
</clipPath>
</defs>
</svg>
